<?xml version="1.0" standalone="no"?>
<!DOCTYPE svg PUBLIC "-//W3C//DTD SVG 20010904//EN"
 "http://www.w3.org/TR/2001/REC-SVG-20010904/DTD/svg10.dtd">
<svg version="1.0" xmlns="http://www.w3.org/2000/svg"
 width="960.000000pt" height="960.000000pt" viewBox="0 0 960.000000 960.000000"
 preserveAspectRatio="xMidYMid meet">
<metadata>
Created by potrace 1.14, written by Peter Selinger 2001-2017
</metadata>
<g transform="translate(0.000000,960.000000) scale(0.100000,-0.100000)"
fill="#000000" stroke="none">
<path d="M2349 7947 c-2 -3 -38 -7 -79 -11 -91 -8 -165 -18 -220 -30 -42 -10
-95 -19 -97 -18 -2 1 -21 -5 -43 -13 -22 -8 -44 -15 -48 -15 -19 -2 -96 -25
-183 -55 -274 -95 -551 -254 -773 -445 -17 -14 -73 -68 -126 -121 -184 -184
-335 -394 -451 -629 -52 -105 -129 -287 -133 -314 -1 -6 -4 -15 -8 -21 -6 -10
-38 -117 -43 -148 -2 -9 -6 -21 -9 -25 -3 -5 -7 -19 -10 -33 -3 -13 -15 -61
-26 -106 -10 -45 -22 -96 -25 -115 -3 -18 -10 -58 -15 -88 -6 -30 -12 -77 -15
-105 -3 -27 -8 -61 -10 -75 -20 -112 -28 -638 -12 -760 4 -30 9 -75 12 -100 4
-59 14 -128 31 -230 71 -413 226 -840 421 -1159 34 -57 63 -107 63 -112 0 -5
3 -9 8 -9 4 0 20 -21 37 -48 16 -26 32 -49 35 -52 3 -3 19 -23 36 -45 87 -119
239 -277 364 -378 41 -34 77 -65 78 -69 2 -5 8 -8 12 -8 8 0 76 -45 147 -96
12 -9 24 -14 26 -12 3 1 13 -4 23 -14 33 -29 266 -134 379 -171 145 -48 278
-77 430 -95 126 -14 510 -7 610 12 11 2 43 7 70 10 28 4 70 12 95 17 25 6 57
12 71 14 14 2 62 13 106 25 44 12 88 23 99 25 10 2 19 4 19 5 0 1 7 3 15 5 28
6 237 83 258 94 12 7 22 9 22 5 0 -3 7 0 16 7 9 7 22 14 28 15 13 2 271 128
316 155 13 7 30 20 38 26 7 7 20 13 28 13 8 0 14 4 14 9 0 5 9 12 20 16 18 6
258 172 285 198 7 7 32 28 56 47 84 68 213 192 301 288 47 53 58 60 58 41 0
-39 138 -334 212 -451 51 -82 135 -199 177 -248 11 -14 31 -36 42 -50 86 -102
243 -248 354 -330 33 -24 62 -47 63 -52 2 -4 10 -8 18 -8 8 0 14 -4 14 -10 0
-5 4 -10 9 -10 5 0 36 -18 69 -39 182 -121 564 -287 732 -317 19 -4 41 -11 48
-17 7 -5 15 -7 18 -5 3 3 29 0 57 -7 54 -14 100 -23 212 -39 130 -20 471 -27
595 -14 36 4 88 10 115 13 28 4 61 8 75 11 14 3 39 7 55 10 17 2 51 9 76 15
63 14 81 17 102 18 9 1 17 5 17 10 0 6 -8 8 -17 7 -58 -11 -111 -20 -133 -22
-198 -18 -379 -21 -530 -10 -87 7 -103 9 -180 21 -25 4 -54 8 -65 10 -11 1
-33 5 -50 8 -16 4 -43 9 -60 12 -44 7 -181 43 -255 68 -36 12 -67 22 -70 22
-3 1 -14 5 -25 10 -11 4 -49 19 -85 32 -88 34 -261 118 -339 165 -34 21 -66
38 -70 38 -4 0 -22 13 -41 30 -19 16 -39 29 -43 30 -8 0 -117 80 -181 131 -93
76 -236 219 -313 314 -26 33 -51 62 -55 63 -5 2 -8 10 -8 18 0 8 -4 14 -8 14
-7 0 -100 137 -142 210 -79 139 -158 320 -205 473 -24 77 -26 91 -15 118 7 17
18 36 24 42 17 18 89 132 133 212 84 151 155 311 208 470 39 117 53 170 75
270 5 22 12 51 15 65 3 14 8 40 11 59 3 18 7 42 9 53 3 11 7 46 11 77 3 31 9
85 13 120 10 79 7 348 -4 449 -9 84 -20 67 116 178 216 177 479 317 747 398
150 45 260 71 355 82 29 4 54 8 57 9 13 8 228 19 350 19 186 0 317 -12 500
-43 104 -18 124 -21 142 -27 9 -3 25 -6 35 -8 87 -18 274 -76 397 -125 96 -39
315 -147 337 -167 8 -8 19 -14 23 -14 7 0 168 -107 206 -137 122 -95 301 -266
357 -340 15 -21 36 -47 45 -57 10 -11 38 -50 63 -87 25 -38 50 -71 56 -74 5
-4 7 -10 4 -15 -3 -4 2 -13 10 -20 8 -7 15 -18 15 -25 0 -8 4 -15 8 -17 11 -4
112 -214 112 -231 0 -7 4 -17 9 -22 13 -14 66 -184 87 -277 2 -10 6 -28 9 -40
3 -13 8 -39 10 -58 3 -19 8 -45 10 -56 31 -142 22 -427 -20 -664 -26 -145 -98
-373 -161 -506 -19 -40 -34 -75 -34 -77 0 -11 -109 -200 -153 -267 -100 -151
-266 -341 -393 -450 -105 -92 -304 -230 -330 -230 -8 0 -14 -4 -14 -8 0 -7
-163 -94 -180 -97 -3 0 -11 -4 -17 -8 -7 -5 -13 -5 -13 -1 0 3 -10 0 -22 -8
-13 -7 -66 -27 -118 -43 -52 -16 -99 -33 -105 -38 -7 -7 -5 -8 5 -5 8 3 56 18
105 33 50 15 99 31 110 35 11 4 63 24 116 44 231 88 477 231 659 384 93 78
238 222 293 292 15 19 41 53 58 75 43 54 139 203 139 214 0 5 4 11 8 13 21 8
171 346 187 418 2 8 10 35 18 60 13 38 40 152 54 225 22 110 30 236 28 420 -1
116 -5 221 -9 235 -3 14 -9 41 -11 60 -11 73 -22 122 -51 227 -161 601 -643
1104 -1289 1348 -38 14 -86 32 -105 40 -71 30 -316 91 -475 120 -258 46 -580
57 -891 30 -40 -3 -83 -8 -95 -10 -11 -2 -40 -7 -63 -9 -22 -3 -52 -8 -66 -11
-14 -3 -38 -7 -55 -9 -28 -4 -149 -31 -187 -41 -10 -3 -28 -7 -39 -10 -43 -9
-135 -36 -171 -50 -21 -8 -38 -13 -38 -10 0 3 -35 -9 -95 -34 -11 -5 -63 -26
-115 -47 -156 -62 -350 -167 -484 -261 -68 -49 -71 -50 -73 -25 -1 29 -14 94
-24 119 -5 13 -7 23 -4 23 2 0 -1 15 -6 33 -6 17 -12 39 -14 47 -68 278 -258
704 -401 897 -13 17 -24 35 -24 38 0 8 -172 233 -222 291 -51 60 -298 305
-343 341 -22 18 -69 55 -105 82 -36 27 -73 57 -82 65 -10 9 -20 16 -23 16 -2
0 -32 20 -67 44 -77 53 -290 171 -378 210 -36 16 -83 37 -105 46 -54 24 -275
98 -313 105 -17 3 -42 9 -56 15 -15 5 -26 7 -26 5 0 -2 -10 -1 -23 4 -21 8
-45 13 -122 26 -11 2 -40 6 -65 9 -25 3 -61 9 -80 12 -41 7 -444 16 -451 11z
m152 -61 c52 -4 105 -8 117 -11 11 -2 45 -6 74 -9 30 -4 68 -10 86 -15 18 -5
32 -7 32 -5 0 3 5 2 12 -2 7 -4 24 -9 38 -11 50 -5 269 -72 387 -118 136 -54
354 -165 457 -233 39 -26 75 -49 80 -51 11 -5 193 -142 226 -170 14 -12 49
-43 79 -69 134 -116 421 -430 421 -460 0 -6 4 -12 8 -14 13 -5 132 -180 192
-282 43 -72 125 -236 191 -381 28 -61 76 -202 108 -315 12 -41 26 -88 31 -105
7 -26 18 -77 35 -165 3 -13 7 -42 10 -65 3 -22 8 -48 11 -58 4 -11 -11 -34
-43 -68 -26 -29 -57 -62 -68 -73 -207 -222 -392 -590 -430 -856 -4 -24 -8 -47
-10 -50 -10 -18 -19 -181 -18 -340 1 -184 20 -349 56 -490 17 -66 19 -63 -79
-190 -117 -153 -275 -322 -394 -422 -25 -21 -58 -49 -75 -64 -30 -25 -193
-142 -250 -179 -103 -67 -384 -204 -450 -220 -5 -1 -23 -7 -38 -13 -16 -7 -34
-12 -41 -12 -7 0 -16 -3 -20 -7 -3 -4 -13 -8 -21 -9 -7 -1 -29 -7 -47 -13 -18
-6 -44 -12 -58 -15 -14 -3 -36 -8 -50 -11 -14 -3 -41 -8 -60 -11 -19 -3 -42
-7 -50 -9 -8 -2 -40 -7 -70 -11 -30 -3 -68 -8 -85 -10 -45 -6 -323 -6 -380 0
-81 8 -149 17 -165 21 -8 2 -35 7 -60 10 -24 4 -52 11 -62 16 -10 5 -18 8 -18
5 0 -5 -124 27 -170 44 -143 51 -365 152 -444 203 -96 61 -205 140 -288 208
-160 133 -277 262 -461 510 -63 84 -237 404 -237 435 0 8 -4 14 -10 14 -5 0
-10 6 -10 14 0 7 -12 40 -26 72 -26 58 -101 277 -125 364 -7 25 -14 50 -15 55
-2 6 -8 28 -13 50 -5 22 -12 51 -15 65 -4 14 -8 36 -11 50 -3 14 -7 36 -10 50
-13 65 -33 192 -40 250 -3 19 -7 55 -10 80 -23 204 -23 604 0 765 3 17 7 53
10 80 3 28 7 61 10 75 19 114 37 212 45 245 6 22 12 51 15 65 6 41 72 258 103
345 196 539 514 961 932 1238 179 118 416 223 570 251 14 2 25 5 25 6 0 6 96
18 220 26 55 4 101 7 102 8 4 3 156 -2 244 -8z m2618 -2788 c1 -35 2 -67 2
-73 3 -72 -15 -292 -31 -385 -5 -30 -12 -73 -16 -95 -29 -197 -157 -571 -272
-794 -35 -66 -43 -70 -47 -24 -1 15 -6 66 -10 113 -22 243 3 499 71 723 13 45
26 89 28 97 18 68 129 302 175 368 47 69 93 132 95 132 2 0 4 -28 5 -62z"/>
<path d="M7750 1748 c-19 -6 -30 -12 -24 -15 7 -2 27 3 45 11 39 17 29 19 -21
4z"/>
</g>
</svg>
