<?xml version="1.0" encoding="UTF-8"?><svg id="a" xmlns="http://www.w3.org/2000/svg" viewBox="0 0 363.48 20.9"><defs><style>.b{fill:#3f3d3d;}</style></defs><path class="b" d="M1.51,10.7c.13-1.03,.49-1.83,1.07-2.4,.58-.58,1.32-.88,2.22-.89,.88,0,1.59,.23,2.13,.69,.53,.5,.88,1.06,1.04,1.69,.15,.65,.16,1.36,.05,2.13-.11,.75-.48,1.42-1.11,2.02-.65,.57-1.44,.81-2.34,.73-.92-.08-1.67-.53-2.25-1.33,.02,.93,.05,1.78,.09,2.53,.04,.75,.08,1.42,.15,2,0,.34-.11,.52-.33,.54-.19,.01-.34-.14-.44-.45-.04-.45-.07-.88-.09-1.28-.02-.41-.04-.8-.05-1.17-.01-.38-.03-.75-.05-1.12-.02-.37-.05-.74-.07-1.1-.06-.73-.06-1.59,0-2.58Zm2-2.11c-.69,.57-1.08,1.29-1.18,2.16-.08,.85,.1,1.58,.55,2.18,.47,.61,1.06,.93,1.76,.98,.71,.07,1.31-.12,1.78-.58,.47-.46,.75-1.1,.82-1.91,.1-.84-.04-1.56-.4-2.16-.39-.63-.94-.98-1.67-1.05-.73-.05-1.28,.08-1.65,.38Z"/><path class="b" d="M14.03,7.29c.7-.02,1.33,.19,1.89,.65,.58,.45,1,1.1,1.25,1.96,.27,.85,.29,1.77,.07,2.76-.22,1.02-.69,1.84-1.42,2.45-.74,.63-1.58,.89-2.53,.78-.98-.11-1.75-.45-2.31-1.04-.54-.54-.9-1.29-1.07-2.24-.17-.9-.1-1.82,.22-2.76,.29-.93,.78-1.62,1.47-2.05,.68-.45,1.48-.62,2.42-.53Zm.24,.71c-.95-.06-1.69,.1-2.24,.47-.58,.38-.98,.95-1.2,1.71-.25,.78-.32,1.53-.2,2.27,.06,.38,.16,.71,.29,1.02s.31,.58,.55,.82c.42,.47,1.04,.75,1.84,.82,.78,.07,1.48-.15,2.13-.67,.61-.51,.99-1.17,1.15-2,.16-.82,.12-1.6-.11-2.33-.23-.73-.55-1.23-.95-1.51-.18-.13-.38-.25-.58-.36-.21-.11-.43-.19-.67-.24Z"/><path class="b" d="M25.26,9.2c-.28-.48-.68-.82-1.2-1.02-.55-.18-1.09-.25-1.64-.2-.58,.06-1.02,.24-1.31,.54-.3,.34-.45,.71-.45,1.13-.01,.44,.22,.82,.71,1.16,.24,.16,.48,.29,.73,.41,.24,.12,.48,.2,.73,.25,.47,.08,1,.29,1.58,.62,.57,.35,.94,.78,1.11,1.27,.18,.52,.13,1.04-.16,1.54-.3,.52-.78,.85-1.42,1-.64,.16-1.3,.18-1.98,.07-.65-.08-1.2-.31-1.64-.67-.44-.38-.71-.88-.84-1.53-.08-.36,.01-.56,.29-.6,.27-.04,.44,.08,.51,.35,.05,.46,.23,.85,.54,1.16,.28,.29,.71,.48,1.31,.58,.57,.08,1.11,.05,1.62-.11,.5-.17,.8-.51,.91-1.04,.11-.51-.06-.93-.51-1.25-.23-.15-.49-.28-.79-.41-.3-.13-.64-.24-1.03-.34-.38-.1-.71-.21-1.01-.35-.3-.14-.56-.31-.79-.52-.47-.39-.71-.9-.71-1.54-.01-.62,.22-1.18,.69-1.67,.46-.46,1.05-.73,1.76-.8,.35-.04,.68-.04,.98-.02,.3,.02,.59,.07,.85,.15,.51,.16,1.01,.47,1.49,.95,.31,.34,.44,.6,.38,.78-.07,.21-.32,.24-.73,.11Z"/><path class="b" d="M31.75,8.18h3.49c.31,.08,.46,.25,.44,.49s-.19,.39-.49,.44h-3.47c-.07,3.05,0,4.75,.24,5.11,.23,.4,.54,.64,.93,.73,.39,.11,.9,.18,1.53,.22,.33,.01,.48,.15,.45,.42-.04,.25-.21,.39-.53,.42-.8,0-1.43-.09-1.89-.27-.45-.17-.84-.53-1.18-1.09-.35-.54-.48-2.38-.38-5.51l-2.4,.04c-.34-.02-.51-.16-.51-.42,0-.28,.17-.45,.51-.51l2.44-.04-.02-3.94c.02-.41,.16-.61,.4-.6,.24,.01,.39,.18,.44,.49l.02,4.03Z"/><path class="b" d="M38.42,7.87c.02,3.03,.13,4.87,.33,5.51,.19,.65,.47,1.12,.82,1.38,.33,.25,.74,.38,1.24,.38s.91-.14,1.29-.42c.39-.28,.69-.8,.91-1.56,.24-.76,.35-2.47,.33-5.12,.05-.61,.32-.77,.82-.49,.12,1.1,.16,3.82,.11,8.14-.02,.35-.16,.54-.42,.58-.24,.01-.35-.18-.31-.58,0-.46-.02-.97-.05-1.53-.13,.33-.29,.61-.46,.84-.18,.23-.37,.42-.57,.56-.42,.28-.95,.44-1.58,.47-.62,.02-1.21-.12-1.78-.44-.54-.3-.96-.94-1.24-1.91-.13-.48-.22-1.21-.26-2.17-.04-.96-.05-2.18-.03-3.64,.05-.39,.21-.58,.49-.58,.25,0,.38,.19,.38,.58Z"/><path class="b" d="M46.94,10.7c.13-1.03,.49-1.83,1.07-2.4,.58-.58,1.32-.88,2.22-.89,.88,0,1.59,.23,2.13,.69,.53,.5,.88,1.06,1.04,1.69,.15,.65,.16,1.36,.05,2.13-.11,.75-.48,1.42-1.11,2.02-.65,.57-1.44,.81-2.34,.73-.92-.08-1.67-.53-2.25-1.33,.02,.93,.05,1.78,.09,2.53,.04,.75,.08,1.42,.15,2,0,.34-.11,.52-.33,.54-.19,.01-.34-.14-.44-.45-.04-.45-.07-.88-.09-1.28-.02-.41-.04-.8-.05-1.17-.01-.38-.03-.75-.05-1.12-.02-.37-.05-.74-.07-1.1-.06-.73-.06-1.59,0-2.58Zm2-2.11c-.69,.57-1.08,1.29-1.18,2.16-.08,.85,.1,1.58,.55,2.18,.47,.61,1.06,.93,1.76,.98,.71,.07,1.31-.12,1.78-.58,.47-.46,.75-1.1,.82-1.91,.1-.84-.04-1.56-.4-2.16-.39-.63-.94-.98-1.67-1.05-.73-.05-1.28,.08-1.65,.38Z"/><path class="b" d="M59.47,7.29c.7-.02,1.33,.19,1.89,.65,.58,.45,1,1.1,1.25,1.96,.27,.85,.29,1.77,.07,2.76-.22,1.02-.69,1.84-1.42,2.45-.74,.63-1.58,.89-2.53,.78-.98-.11-1.75-.45-2.31-1.04-.54-.54-.9-1.29-1.07-2.24-.17-.9-.1-1.82,.22-2.76,.29-.93,.78-1.62,1.47-2.05,.68-.45,1.48-.62,2.42-.53Zm.24,.71c-.95-.06-1.69,.1-2.24,.47-.58,.38-.98,.95-1.2,1.71-.25,.78-.32,1.53-.2,2.27,.06,.38,.16,.71,.29,1.02s.31,.58,.55,.82c.42,.47,1.04,.75,1.84,.82,.78,.07,1.48-.15,2.13-.67,.61-.51,.99-1.17,1.15-2,.16-.82,.12-1.6-.11-2.33-.23-.73-.55-1.23-.95-1.51-.18-.13-.38-.25-.58-.36-.21-.11-.43-.19-.67-.24Z"/><path class="b" d="M65.06,9.67c.11-.57,.31-1.03,.62-1.38,.31-.29,.68-.43,1.09-.42,.21,.01,.39,.06,.55,.15s.31,.22,.43,.39c.23,.36,.41,.91,.53,1.64,.06-.33,.14-.63,.24-.91,.1-.28,.22-.51,.38-.71,.31-.41,.78-.58,1.4-.51,.64,.07,1.13,.54,1.45,1.4,.35,.87,.46,2.96,.33,6.27,0,.28-.13,.42-.4,.44-.28,0-.41-.21-.38-.64,.13-2.5,.06-4.2-.22-5.12-.28-.96-.61-1.44-1-1.45-.39-.02-.71,.34-.96,1.09-.13,.38-.25,1.04-.34,2s-.15,2.21-.17,3.74c-.29,.5-.56,.46-.8-.11-.01-1.37-.04-2.5-.07-3.4-.04-.9-.09-1.56-.16-2-.15-.88-.44-1.33-.87-1.34-.45,0-.81,.48-1.07,1.44-.28,.97-.44,1.96-.47,2.96-.02,.51-.04,.97-.05,1.37-.01,.41-.02,.75-.02,1.04-.27,.52-.53,.56-.8,.13l-.04-8.23c.02-.41,.16-.62,.42-.62,.25,.01,.38,.17,.38,.47l.02,2.31Z"/><path class="b" d="M90.83,9.76c-.35-.68-.92-1.14-1.71-1.38-.78-.22-1.54-.13-2.31,.25-.78,.38-1.25,1.1-1.44,2.18-.19,1.05-.02,2.02,.53,2.91,.53,.86,1.33,1.27,2.4,1.24,1.02-.01,1.79-.34,2.33-.98,.23-.16,.43-.19,.6-.09,.15,.11,.12,.34-.07,.69-.65,.76-1.39,1.2-2.2,1.31-.81,.12-1.51,.04-2.09-.24-.29-.13-.55-.29-.79-.48-.24-.19-.45-.4-.65-.63-.41-.45-.69-1.06-.84-1.83-.17-.75-.13-1.61,.11-2.58,.22-.99,.78-1.75,1.69-2.25,.9-.52,1.86-.64,2.89-.34,1.01,.31,1.75,.91,2.24,1.8,.07,.4,.05,.64-.07,.73-.15,.08-.35-.01-.62-.29Zm-4.65-5.22c-.17-.19-.16-.38,.02-.56,.08-.07,.18-.11,.29-.11s.2,.04,.27,.13l1.36,1.42,1.34-1.42c.18-.18,.37-.19,.56-.02,.18,.18,.19,.37,.02,.56l-1.65,1.73c-.07,.07-.16,.11-.27,.11-.12,0-.22-.04-.29-.11l-1.65-1.73Z"/><path class="b" d="M93.6,7.63c.34-.51,.81-.87,1.42-1.07,.58-.16,1.19-.18,1.82-.05,.59,.12,1.1,.41,1.53,.85,.21,.23,.38,.48,.52,.74,.14,.26,.23,.54,.28,.84,.06,.3,.08,.65,.07,1.03-.01,.38-.05,.81-.13,1.28-.08,.47-.17,.89-.25,1.25-.08,.36-.15,.67-.21,.93,.19,.5,.46,.84,.8,1.04,.33,.19,.68,.28,1.05,.27,.35-.01,.52,.12,.51,.4-.01,.3-.25,.46-.73,.46-.45,0-.86-.14-1.24-.42-.4-.29-.66-.55-.78-.76-.28,.56-.67,.93-1.16,1.13-.53,.21-1.11,.27-1.73,.18-.3-.05-.58-.13-.83-.25-.25-.12-.46-.3-.63-.53-.35-.42-.53-1.04-.53-1.84-.01-.78,.23-1.46,.73-2.05,.48-.58,1.09-.84,1.82-.78,.7,.04,1.22,.22,1.56,.54,.33,.3,.54,.73,.65,1.29,.22-1.49,.28-2.46,.18-2.93-.11-.45-.32-.84-.62-1.18-.29-.35-.66-.58-1.11-.69-.46-.1-.91-.08-1.35,.05-.45,.13-.81,.41-1.09,.82-.29,.18-.5,.21-.62,.09-.13-.13-.12-.35,.04-.64Zm3.96,4.8c-.23-.47-.44-.81-.64-1-.17-.18-.5-.3-.98-.36-.48-.04-.85,.06-1.09,.29-.13,.12-.24,.25-.32,.37-.08,.13-.14,.26-.19,.39-.05,.15-.08,.31-.1,.48-.02,.18-.03,.37-.05,.59-.01,.41,.11,.79,.36,1.13,.23,.34,.56,.54,1,.6,.42,.06,.81,.02,1.15-.13,.34-.17,.6-.44,.78-.82,.16-.39,.18-.9,.07-1.54Z"/><path class="b" d="M108.86,9.2c-.28-.48-.68-.82-1.2-1.02-.55-.18-1.09-.25-1.64-.2-.58,.06-1.02,.24-1.31,.54-.3,.34-.45,.71-.45,1.13-.01,.44,.22,.82,.71,1.16,.24,.16,.48,.29,.73,.41,.24,.12,.48,.2,.73,.25,.47,.08,1,.29,1.58,.62,.57,.35,.94,.78,1.11,1.27,.18,.52,.13,1.04-.16,1.54-.3,.52-.78,.85-1.42,1-.64,.16-1.3,.18-1.98,.07-.65-.08-1.2-.31-1.64-.67-.44-.38-.71-.88-.84-1.53-.08-.36,.01-.56,.29-.6,.27-.04,.44,.08,.51,.35,.05,.46,.23,.85,.54,1.16,.28,.29,.71,.48,1.31,.58,.57,.08,1.11,.05,1.62-.11,.5-.17,.8-.51,.91-1.04,.11-.51-.06-.93-.51-1.25-.23-.15-.49-.28-.79-.41-.3-.13-.64-.24-1.03-.34-.38-.1-.71-.21-1.01-.35-.3-.14-.56-.31-.79-.52-.47-.39-.71-.9-.71-1.54-.01-.62,.22-1.18,.69-1.67,.46-.46,1.05-.73,1.76-.8,.35-.04,.68-.04,.98-.02,.3,.02,.59,.07,.85,.15,.51,.16,1.01,.47,1.49,.95,.31,.34,.44,.6,.38,.78-.07,.21-.32,.24-.73,.11Z"/><path class="b" d="M112.93,7.87c.02,3.03,.13,4.87,.33,5.51,.19,.65,.47,1.12,.82,1.38,.33,.25,.74,.38,1.24,.38s.91-.14,1.29-.42c.39-.28,.69-.8,.91-1.56,.24-.76,.35-2.47,.33-5.12,.05-.61,.32-.77,.82-.49,.12,1.1,.16,3.82,.11,8.14-.02,.35-.16,.54-.42,.58-.24,.01-.35-.18-.31-.58,0-.46-.02-.97-.05-1.53-.13,.33-.29,.61-.46,.84-.18,.23-.37,.42-.57,.56-.42,.28-.95,.44-1.58,.47-.62,.02-1.21-.12-1.78-.44-.54-.3-.96-.94-1.24-1.91-.13-.48-.22-1.21-.26-2.17-.04-.96-.05-2.18-.03-3.64,.05-.39,.21-.58,.49-.58,.25,0,.38,.19,.38,.58Z"/><path class="b" d="M135.67,15.61c-.27,.48-.55,.51-.84,.07l-2.89-7.76c-.16-.4-.11-.64,.15-.73,.25-.07,.45,.03,.58,.31l2.58,7.05,2.94-6.94c.21-.25,.41-.32,.62-.2,.21,.13,.23,.36,.07,.67l-3.22,7.52Z"/><path class="b" d="M147.03,9.2c-.28-.48-.68-.82-1.2-1.02-.55-.18-1.09-.25-1.64-.2-.58,.06-1.02,.24-1.31,.54-.3,.34-.45,.71-.45,1.13-.01,.44,.22,.82,.71,1.16,.24,.16,.48,.29,.73,.41,.24,.12,.48,.2,.73,.25,.47,.08,1,.29,1.58,.62,.57,.35,.94,.78,1.11,1.27,.18,.52,.13,1.04-.16,1.54-.3,.52-.78,.85-1.42,1-.64,.16-1.3,.18-1.98,.07-.65-.08-1.2-.31-1.64-.67-.44-.38-.71-.88-.84-1.53-.08-.36,.01-.56,.29-.6,.27-.04,.44,.08,.51,.35,.05,.46,.23,.85,.54,1.16,.28,.29,.71,.48,1.31,.58,.57,.08,1.11,.05,1.62-.11,.5-.17,.8-.51,.91-1.04,.11-.51-.06-.93-.51-1.25-.23-.15-.49-.28-.79-.41-.3-.13-.64-.24-1.03-.34-.38-.1-.71-.21-1.01-.35-.3-.14-.56-.31-.79-.52-.47-.39-.71-.9-.71-1.54-.01-.62,.22-1.18,.69-1.67,.46-.46,1.05-.73,1.76-.8,.35-.04,.68-.04,.98-.02,.3,.02,.59,.07,.85,.15,.51,.16,1.01,.47,1.49,.95,.31,.34,.44,.6,.38,.78-.07,.21-.32,.24-.73,.11Zm-4.58-4.31c-.17-.19-.16-.38,.02-.56,.08-.07,.18-.11,.29-.11s.2,.04,.27,.13l1.36,1.42,1.34-1.42c.18-.18,.37-.19,.56-.02,.18,.18,.19,.37,.02,.56l-1.65,1.73c-.07,.07-.16,.11-.27,.11-.12,0-.22-.04-.29-.11l-1.65-1.73Z"/><path class="b" d="M150.72,12.23c.06,.4,.15,.75,.28,1.06,.13,.31,.29,.57,.5,.79,.19,.21,.44,.39,.75,.54,.3,.16,.66,.29,1.07,.38,.84,.19,1.73,.14,2.69-.16,.33-.07,.51,0,.56,.2,.05,.23-.08,.42-.4,.56-.95,.33-1.87,.42-2.78,.27-.93-.13-1.7-.5-2.31-1.11-.62-.62-.96-1.47-1.04-2.54-.05-.55-.05-1.03,0-1.46,.05-.43,.14-.81,.26-1.14,.13-.31,.28-.59,.45-.84,.17-.24,.36-.45,.58-.64,.42-.35,.9-.6,1.42-.75,.25-.06,.51-.1,.77-.11,.26-.01,.51,0,.74,.02,.5,.07,.94,.24,1.34,.51,.22,.12,.41,.26,.58,.43,.17,.16,.31,.34,.44,.54,.22,.4,.39,.87,.53,1.42,.11,.54,.13,1.01,.05,1.38-.07,.38-.25,.58-.53,.62l-5.98,.02Zm5.72-.75c.12-.9-.04-1.66-.47-2.29-.48-.63-1.02-.99-1.62-1.07-.63-.1-1.2-.05-1.71,.13-.25,.1-.49,.24-.72,.43-.22,.19-.42,.43-.59,.72-.36,.57-.53,1.26-.51,2.07l5.62,.02Z"/><path class="b" d="M162.6,8.18h3.49c.31,.08,.46,.25,.44,.49s-.19,.39-.49,.44h-3.47c-.07,3.05,0,4.75,.24,5.11,.23,.4,.54,.64,.93,.73,.39,.11,.9,.18,1.53,.22,.33,.01,.48,.15,.45,.42-.04,.25-.21,.39-.53,.42-.8,0-1.43-.09-1.89-.27-.45-.17-.84-.53-1.18-1.09-.35-.54-.48-2.38-.38-5.51l-2.4,.04c-.34-.02-.51-.16-.51-.42,0-.28,.17-.45,.51-.51l2.44-.04-.02-3.94c.02-.41,.16-.61,.4-.6,.24,.01,.39,.18,.44,.49l.02,4.03Z"/><path class="b" d="M171.6,10.79l3.11,4.29c.16,.36,.13,.6-.09,.71-.22,.11-.41,.06-.58-.15l-3.09-4.43-1.38,1.13c-.05,.88-.01,1.87,.11,2.94-.01,.36-.13,.57-.35,.62-.22,.05-.38-.1-.49-.45-.27-3.59-.3-7.58-.11-12,.07-.35,.23-.51,.47-.49,.25,.01,.38,.19,.38,.55-.04,1.42-.06,2.77-.08,4.06-.02,1.29-.03,2.53-.05,3.72l5.02-3.98c.27-.16,.47-.13,.62,.09,.13,.25,.07,.51-.18,.76l-3.31,2.63Z"/><path class="b" d="M181.23,7.29c.7-.02,1.33,.19,1.89,.65,.58,.45,1,1.1,1.25,1.96,.27,.85,.29,1.77,.07,2.76-.22,1.02-.69,1.84-1.42,2.45-.74,.63-1.58,.89-2.53,.78-.98-.11-1.75-.45-2.31-1.04-.54-.54-.9-1.29-1.07-2.24-.17-.9-.1-1.82,.22-2.76,.29-.93,.78-1.62,1.47-2.05,.68-.45,1.48-.62,2.42-.53Zm.24,.71c-.95-.06-1.69,.1-2.24,.47-.58,.38-.98,.95-1.2,1.71-.25,.78-.32,1.53-.2,2.27,.06,.38,.16,.71,.29,1.02s.31,.58,.55,.82c.42,.47,1.04,.75,1.84,.82,.78,.07,1.48-.15,2.13-.67,.61-.51,.99-1.17,1.15-2,.16-.82,.12-1.6-.11-2.33-.23-.73-.54-1.23-.94-1.51-.18-.13-.38-.25-.58-.36-.21-.11-.43-.19-.67-.24Z"/><path class="b" d="M197.79,10.7c.13-1.03,.49-1.83,1.07-2.4,.58-.58,1.32-.88,2.22-.89,.88,0,1.59,.23,2.13,.69,.53,.5,.88,1.06,1.04,1.69,.15,.65,.16,1.36,.05,2.13-.11,.75-.48,1.42-1.11,2.02-.65,.57-1.44,.81-2.34,.73-.92-.08-1.67-.53-2.25-1.33,.02,.93,.05,1.78,.09,2.53,.04,.75,.08,1.42,.14,2,0,.34-.11,.52-.33,.54-.19,.01-.34-.14-.44-.45-.04-.45-.07-.88-.09-1.28-.02-.41-.04-.8-.05-1.17-.01-.38-.03-.75-.05-1.12-.02-.37-.05-.74-.07-1.1-.06-.73-.06-1.59,0-2.58Zm2-2.11c-.69,.57-1.08,1.29-1.18,2.16-.08,.85,.1,1.58,.54,2.18,.47,.61,1.06,.93,1.76,.98,.71,.07,1.31-.12,1.78-.58,.47-.46,.75-1.1,.82-1.91,.1-.84-.04-1.56-.4-2.16-.39-.63-.95-.98-1.67-1.05-.73-.05-1.28,.08-1.65,.38Z"/><path class="b" d="M210.31,7.29c.7-.02,1.33,.19,1.89,.65,.58,.45,1,1.1,1.25,1.96,.27,.85,.29,1.77,.07,2.76-.22,1.02-.69,1.84-1.42,2.45-.74,.63-1.58,.89-2.53,.78-.98-.11-1.75-.45-2.31-1.04-.54-.54-.9-1.29-1.07-2.24-.17-.9-.1-1.82,.22-2.76,.29-.93,.78-1.62,1.47-2.05,.68-.45,1.48-.62,2.42-.53Zm.24,.71c-.95-.06-1.69,.1-2.24,.47-.58,.38-.98,.95-1.2,1.71-.25,.78-.32,1.53-.2,2.27,.06,.38,.16,.71,.29,1.02,.13,.3,.31,.58,.54,.82,.42,.47,1.04,.75,1.84,.82,.77,.07,1.48-.15,2.13-.67,.61-.51,.99-1.17,1.15-2,.16-.82,.12-1.6-.11-2.33-.23-.73-.54-1.23-.95-1.51-.18-.13-.38-.25-.58-.36-.21-.11-.43-.19-.67-.24Z"/><path class="b" d="M218.95,8.18h3.49c.31,.08,.46,.25,.44,.49-.02,.24-.19,.39-.49,.44h-3.47c-.07,3.05,0,4.75,.24,5.11,.23,.4,.54,.64,.93,.73,.39,.11,.9,.18,1.53,.22,.33,.01,.48,.15,.45,.42-.04,.25-.21,.39-.53,.42-.8,0-1.43-.09-1.89-.27-.45-.17-.84-.53-1.18-1.09-.35-.54-.48-2.38-.38-5.51l-2.4,.04c-.34-.02-.51-.16-.51-.42,0-.28,.17-.45,.51-.51l2.44-.04-.02-3.94c.02-.41,.16-.61,.4-.6,.24,.01,.39,.18,.44,.49l.02,4.03Z"/><path class="b" d="M226.32,10.81c.87-1.88,2.38-2.79,4.53-2.73,.29,.01,.44,.13,.46,.36,0,.22-.15,.35-.46,.4-2.05,.06-3.45,1.04-4.22,2.94-.1,.27-.18,.69-.24,1.28s-.1,1.33-.11,2.23c0,.38-.11,.57-.33,.58-.24,.02-.4-.13-.47-.47l-.07-7.61c-.04-.42,.07-.66,.31-.71,.25-.06,.43,.12,.53,.53l.07,3.2Z"/><path class="b" d="M234.32,12.23c.06,.4,.15,.75,.28,1.06,.13,.31,.29,.57,.5,.79,.19,.21,.44,.39,.75,.54,.3,.16,.66,.29,1.07,.38,.84,.19,1.73,.14,2.69-.16,.33-.07,.52,0,.56,.2,.05,.23-.08,.42-.4,.56-.95,.33-1.87,.42-2.78,.27-.93-.13-1.7-.5-2.31-1.11-.62-.62-.96-1.47-1.04-2.54-.05-.55-.04-1.03,0-1.46,.05-.43,.14-.81,.26-1.14,.13-.31,.29-.59,.46-.84,.17-.24,.36-.45,.58-.64,.42-.35,.9-.6,1.42-.75,.25-.06,.51-.1,.77-.11,.26-.01,.51,0,.74,.02,.5,.07,.95,.24,1.35,.51,.22,.12,.41,.26,.58,.43,.17,.16,.32,.34,.44,.54,.22,.4,.39,.87,.53,1.42,.11,.54,.13,1.01,.05,1.38-.07,.38-.25,.58-.53,.62l-5.98,.02Zm5.72-.75c.12-.9-.04-1.66-.47-2.29-.48-.63-1.02-.99-1.62-1.07-.63-.1-1.2-.05-1.71,.13-.25,.1-.49,.24-.72,.43-.22,.19-.42,.43-.59,.72-.36,.57-.53,1.26-.51,2.07l5.62,.02Z"/><path class="b" d="M243.63,3.54c-.04,3.45-.05,5.43-.05,5.94,.29-.41,.84-.73,1.64-.94,.79-.19,1.6-.18,2.44,.05,.81,.23,1.42,.68,1.82,1.34,.18,.33,.32,.65,.42,.97,.1,.32,.15,.65,.15,.97,0,.67-.13,1.29-.38,1.87-.28,.61-.62,1.07-1.04,1.38-.42,.33-1.11,.54-2.07,.64-.97,.08-1.75-.08-2.33-.49-.3-.21-.55-.43-.75-.66-.19-.24-.35-.48-.46-.74-.1-.27-.17-.55-.23-.84s-.08-.62-.08-.95c-.01-.34,0-1.23,0-2.66,.02-1.44,.04-3.43,.06-5.97,.07-.36,.24-.54,.49-.53,.24,.01,.36,.22,.36,.62Zm1.64,11.3c.64,.21,1.2,.25,1.67,.13,.24-.06,.47-.13,.69-.22,.22-.08,.42-.19,.62-.33,.39-.25,.68-.81,.87-1.67,.19-.85,.1-1.59-.29-2.22-.41-.62-.93-1.02-1.56-1.22-.63-.19-1.33-.15-2.11,.15-.38,.13-.68,.3-.92,.51-.24,.21-.4,.44-.5,.69-.08,.27-.15,.55-.19,.85-.04,.3-.05,.6-.03,.92,.04,.65,.19,1.17,.46,1.54,.13,.19,.31,.36,.52,.51s.47,.27,.77,.36Z"/><path class="b" d="M252.4,7.49c.04-.38,.15-.57,.33-.58,.19,0,.31,.18,.36,.54v2.51c.18-.78,.48-1.39,.89-1.83,.41-.45,1-.7,1.76-.75,.8-.06,1.44,.22,1.91,.85,.24,.3,.44,.68,.6,1.15,.16,.46,.27,1,.33,1.62,.06,.61,.08,1.3,.07,2.07-.01,.78-.06,1.63-.15,2.56-.1,.32-.27,.45-.51,.4-.23-.07-.34-.25-.33-.54,.08-.9,.13-1.71,.15-2.43,.01-.72,0-1.36-.05-1.92-.11-1.08-.35-1.85-.73-2.33-.39-.44-.85-.63-1.38-.58-.53,.05-1.01,.41-1.44,1.07-.19,.33-.36,.69-.49,1.09-.13,.4-.22,.84-.27,1.31-.04,.47-.07,.92-.09,1.34s-.03,.8-.02,1.15c.01,.35,0,.67,0,.94-.02,.28-.04,.52-.06,.71-.4,.3-.67,.22-.8-.24l-.07-8.12Z"/><path class="b" d="M261.58,12.23c.06,.4,.15,.75,.28,1.06,.13,.31,.29,.57,.5,.79,.19,.21,.44,.39,.75,.54,.3,.16,.66,.29,1.07,.38,.84,.19,1.73,.14,2.69-.16,.33-.07,.52,0,.56,.2,.05,.23-.08,.42-.4,.56-.95,.33-1.87,.42-2.78,.27-.93-.13-1.7-.5-2.31-1.11-.62-.62-.96-1.47-1.04-2.54-.05-.55-.04-1.03,0-1.46,.05-.43,.14-.81,.26-1.14,.13-.31,.29-.59,.46-.84,.17-.24,.36-.45,.58-.64,.42-.35,.9-.6,1.42-.75,.25-.06,.51-.1,.77-.11,.26-.01,.51,0,.74,.02,.5,.07,.95,.24,1.35,.51,.22,.12,.41,.26,.58,.43,.17,.16,.32,.34,.44,.54,.22,.4,.39,.87,.53,1.42,.11,.54,.13,1.01,.05,1.38-.07,.38-.25,.58-.53,.62l-5.98,.02Zm5.72-.75c.12-.9-.04-1.66-.47-2.29-.48-.63-1.02-.99-1.62-1.07-.63-.1-1.2-.05-1.71,.13-.25,.1-.49,.24-.72,.43-.22,.19-.42,.43-.59,.72-.36,.57-.53,1.26-.51,2.07l5.62,.02Zm-2.58-7.56c.12-.23,.26-.37,.43-.43,.16-.05,.31-.04,.45,.03,.14,.07,.23,.18,.28,.33,.05,.15,0,.31-.13,.49l-1.44,2.04c-.12,.17-.25,.25-.39,.24-.14-.01-.25-.07-.33-.18-.08-.11-.08-.23,0-.36l1.13-2.14Z"/><path class="b" d="M284.83,7.29c.7-.02,1.33,.19,1.89,.65,.58,.45,1,1.1,1.25,1.96,.27,.85,.29,1.77,.07,2.76-.22,1.02-.69,1.84-1.42,2.45-.74,.63-1.58,.89-2.53,.78-.98-.11-1.75-.45-2.31-1.04-.54-.54-.9-1.29-1.07-2.24-.17-.9-.1-1.82,.22-2.76,.29-.93,.78-1.62,1.47-2.05,.68-.45,1.48-.62,2.42-.53Zm.24,.71c-.95-.06-1.69,.1-2.24,.47-.58,.38-.98,.95-1.2,1.71-.25,.78-.32,1.53-.2,2.27,.06,.38,.16,.71,.29,1.02,.13,.3,.31,.58,.54,.82,.42,.47,1.04,.75,1.84,.82,.77,.07,1.48-.15,2.13-.67,.61-.51,.99-1.17,1.15-2,.16-.82,.12-1.6-.11-2.33-.23-.73-.54-1.23-.95-1.51-.18-.13-.38-.25-.58-.36-.21-.11-.43-.19-.67-.24Z"/><path class="b" d="M290.88,3.54c-.04,3.45-.05,5.43-.05,5.94,.29-.41,.84-.73,1.64-.94,.79-.19,1.6-.18,2.44,.05,.81,.23,1.42,.68,1.82,1.34,.18,.33,.32,.65,.42,.97,.1,.32,.15,.65,.15,.97,0,.67-.13,1.29-.38,1.87-.28,.61-.62,1.07-1.04,1.38-.42,.33-1.11,.54-2.07,.64-.97,.08-1.75-.08-2.33-.49-.3-.21-.55-.43-.75-.66-.19-.24-.35-.48-.46-.74-.1-.27-.17-.55-.23-.84s-.08-.62-.08-.95c-.01-.34,0-1.23,0-2.66,.02-1.44,.04-3.43,.06-5.97,.07-.36,.24-.54,.49-.53,.24,.01,.36,.22,.36,.62Zm1.64,11.3c.64,.21,1.2,.25,1.67,.13,.24-.06,.47-.13,.69-.22,.22-.08,.42-.19,.62-.33,.39-.25,.68-.81,.87-1.67,.19-.85,.1-1.59-.29-2.22-.41-.62-.93-1.02-1.56-1.22-.63-.19-1.33-.15-2.11,.15-.38,.13-.68,.3-.92,.51-.24,.21-.4,.44-.5,.69-.08,.27-.15,.55-.19,.85-.04,.3-.05,.6-.03,.92,.04,.65,.19,1.17,.46,1.54,.13,.19,.31,.36,.52,.51s.47,.27,.77,.36Z"/><path class="b" d="M304.96,7.65v6.02c0,1.42-.29,2.48-.87,3.2-.58,.7-1.32,1.1-2.22,1.2-.91,.08-1.78-.21-2.6-.89-.23-.41-.25-.72-.05-.91,.19-.19,.44-.12,.73,.24,.51,.48,1.11,.71,1.8,.67,.67-.04,1.24-.35,1.73-.95,.22-.32,.38-.7,.5-1.16,.11-.46,.17-1.01,.15-1.64-.01-.63-.02-1.42-.02-2.38v-3.4c.05-.32,.19-.48,.44-.51,.23-.01,.37,.16,.42,.51Zm.42-2.36c-.58,.29-1.08,.33-1.51,.13s-.64-.58-.64-1.11,.25-.88,.76-1.07c.51-.19,.93-.15,1.25,.13,.34,.25,.52,.56,.54,.91,.02,.4-.12,.74-.42,1.02Z"/><path class="b" d="M308.05,7.63c.34-.51,.81-.87,1.42-1.07,.58-.16,1.19-.18,1.82-.05,.59,.12,1.1,.41,1.53,.85,.21,.23,.38,.48,.52,.74,.14,.26,.23,.54,.28,.84,.06,.3,.08,.65,.07,1.03-.01,.38-.05,.81-.13,1.28-.08,.47-.17,.89-.25,1.25s-.15,.67-.21,.93c.19,.5,.46,.84,.8,1.04,.33,.19,.68,.28,1.05,.27,.35-.01,.52,.12,.51,.4-.01,.3-.25,.46-.73,.46-.45,0-.86-.14-1.24-.42-.4-.29-.66-.55-.78-.76-.28,.56-.67,.93-1.16,1.13-.53,.21-1.11,.27-1.73,.18-.3-.05-.58-.13-.83-.25-.25-.12-.46-.3-.63-.53-.35-.42-.53-1.04-.53-1.84-.01-.78,.23-1.46,.73-2.05,.48-.58,1.09-.84,1.82-.78,.7,.04,1.22,.22,1.56,.54,.33,.3,.54,.73,.65,1.29,.22-1.49,.28-2.46,.18-2.93-.11-.45-.32-.84-.62-1.18-.29-.35-.66-.58-1.11-.69-.46-.1-.91-.08-1.34,.05-.45,.13-.81,.41-1.09,.82-.29,.18-.5,.21-.62,.09-.13-.13-.12-.35,.04-.64Zm3.96,4.8c-.23-.47-.44-.81-.64-1-.17-.18-.5-.3-.98-.36-.48-.04-.85,.06-1.09,.29-.13,.12-.24,.25-.32,.37s-.14,.26-.19,.39c-.05,.15-.08,.31-.1,.48-.02,.18-.03,.37-.04,.59-.01,.41,.11,.79,.36,1.13,.23,.34,.56,.54,1,.6,.42,.06,.81,.02,1.15-.13,.34-.17,.6-.44,.78-.82,.16-.39,.18-.9,.07-1.54Z"/><path class="b" d="M323.32,9.2c-.28-.48-.68-.82-1.2-1.02-.55-.18-1.09-.25-1.64-.2-.58,.06-1.02,.24-1.31,.54-.3,.34-.45,.71-.45,1.13-.01,.44,.22,.82,.71,1.16,.24,.16,.49,.29,.73,.41s.48,.2,.73,.25c.47,.08,1,.29,1.58,.62,.57,.35,.94,.78,1.11,1.27,.18,.52,.13,1.04-.16,1.54-.3,.52-.78,.85-1.42,1-.64,.16-1.3,.18-1.98,.07-.65-.08-1.2-.31-1.64-.67-.44-.38-.71-.88-.84-1.53-.08-.36,.01-.56,.29-.6,.27-.04,.44,.08,.51,.35,.05,.46,.23,.85,.54,1.16,.28,.29,.71,.48,1.31,.58,.57,.08,1.11,.05,1.62-.11,.5-.17,.8-.51,.91-1.04,.11-.51-.06-.93-.51-1.25-.23-.15-.49-.28-.79-.41-.3-.13-.64-.24-1.03-.34-.38-.1-.71-.21-1.01-.35-.3-.14-.56-.31-.79-.52-.47-.39-.71-.9-.71-1.54-.01-.62,.22-1.18,.69-1.67,.46-.46,1.05-.73,1.76-.8,.35-.04,.68-.04,.98-.02s.59,.07,.85,.15c.51,.16,1,.47,1.49,.95,.31,.34,.44,.6,.38,.78-.07,.21-.32,.24-.73,.11Z"/><path class="b" d="M326.92,7.49c.04-.38,.15-.57,.33-.58,.19,0,.31,.18,.36,.54v2.51c.18-.78,.48-1.39,.89-1.83,.41-.45,1-.7,1.76-.75,.8-.06,1.44,.22,1.91,.85,.24,.3,.44,.68,.6,1.15,.16,.46,.27,1,.33,1.62,.06,.61,.08,1.3,.07,2.07-.01,.78-.06,1.63-.15,2.56-.1,.32-.27,.45-.51,.4-.23-.07-.34-.25-.33-.54,.08-.9,.13-1.71,.15-2.43,.01-.72,0-1.36-.05-1.92-.11-1.08-.35-1.85-.73-2.33-.39-.44-.85-.63-1.38-.58-.53,.05-1.01,.41-1.44,1.07-.19,.33-.36,.69-.49,1.09-.13,.4-.22,.84-.27,1.31-.04,.47-.07,.92-.09,1.34s-.03,.8-.02,1.15c.01,.35,0,.67,0,.94-.02,.28-.04,.52-.06,.71-.4,.3-.67,.22-.8-.24l-.07-8.12Z"/><path class="b" d="M338.64,3.58c.12-.23,.26-.37,.43-.43,.16-.05,.31-.05,.45,.03,.14,.07,.23,.18,.28,.33,.05,.14,0,.31-.13,.49l-1.44,2.04c-.12,.17-.25,.25-.39,.24-.14-.01-.25-.07-.33-.18-.08-.11-.08-.23,0-.36l1.13-2.14Zm.47,11.94c-.08,.4-.27,.59-.56,.56-.3-.02-.42-.21-.36-.56l-.07-7.76c.01-.4,.16-.59,.45-.58,.3,.02,.46,.21,.47,.56l.07,7.78Z"/><path class="b" d="M346.77,9.67c.11-.57,.31-1.03,.62-1.38,.31-.29,.68-.43,1.09-.42,.21,.01,.39,.06,.55,.15,.16,.09,.31,.22,.43,.39,.23,.36,.41,.91,.53,1.64,.06-.33,.14-.63,.24-.91,.1-.28,.22-.51,.38-.71,.31-.41,.78-.58,1.4-.51,.64,.07,1.13,.54,1.45,1.4,.35,.87,.46,2.96,.33,6.27,0,.28-.13,.42-.4,.44-.28,0-.41-.21-.38-.64,.13-2.5,.06-4.2-.22-5.12-.28-.96-.61-1.44-1-1.45-.39-.02-.71,.34-.96,1.09-.13,.38-.25,1.04-.34,2s-.15,2.21-.17,3.74c-.29,.5-.56,.46-.8-.11-.01-1.37-.04-2.5-.07-3.4-.04-.9-.09-1.56-.16-2-.15-.88-.44-1.33-.87-1.34-.45,0-.81,.48-1.07,1.44-.28,.97-.44,1.96-.47,2.96-.02,.51-.04,.97-.05,1.37-.01,.41-.02,.75-.02,1.04-.27,.52-.53,.56-.8,.13l-.04-8.23c.02-.41,.16-.62,.42-.62,.25,.01,.38,.17,.38,.47l.02,2.31Z"/><path class="b" d="M356.09,12.23c.06,.4,.15,.75,.28,1.06,.13,.31,.29,.57,.5,.79,.19,.21,.44,.39,.75,.54,.3,.16,.66,.29,1.07,.38,.84,.19,1.73,.14,2.69-.16,.33-.07,.52,0,.56,.2,.05,.23-.08,.42-.4,.56-.95,.33-1.87,.42-2.78,.27-.93-.13-1.7-.5-2.31-1.11-.62-.62-.96-1.47-1.04-2.54-.05-.55-.04-1.03,0-1.46,.05-.43,.14-.81,.26-1.14,.13-.31,.29-.59,.46-.84,.17-.24,.36-.45,.58-.64,.42-.35,.9-.6,1.42-.75,.25-.06,.51-.1,.77-.11,.26-.01,.51,0,.74,.02,.5,.07,.95,.24,1.35,.51,.22,.12,.41,.26,.58,.43,.17,.16,.32,.34,.44,.54,.22,.4,.39,.87,.53,1.42,.11,.54,.13,1.01,.05,1.38-.07,.38-.25,.58-.53,.62l-5.98,.02Zm5.72-.75c.12-.9-.04-1.66-.47-2.29-.48-.63-1.02-.99-1.62-1.07-.63-.1-1.2-.05-1.71,.13-.25,.1-.49,.24-.72,.43-.22,.19-.42,.43-.59,.72-.36,.57-.53,1.26-.51,2.07l5.62,.02Z"/></svg>