<?xml version="1.0" encoding="UTF-8"?><svg id="a" xmlns="http://www.w3.org/2000/svg" viewBox="0 0 178.65 63.57"><defs><style>.b{fill:#3f3d3d;}</style></defs><g><path class="b" d="M47.24,18.06c.07,8.3-6.57,17.16-15.35,17.4-5.96,.17-10.88-3.53-13.33-8.8-2.26-4.85-2.62-10.67-1.08-15.78,.73-2.42,1.93-4.73,3.65-6.6,.85-.92,1.82-1.72,2.88-2.37,1.47-.89,2.73-1.34,4.21-1.49,10.02-1.03,18.7,7.99,19.02,17.64,0-.09,1.29-.23,1.29-.35C48.22,8.24,39.9-.58,30.08,.03c-5.66,.35-10.57,3.54-12.95,8.71-4.87,10.56,.25,28.1,14.18,27.03,9.4-.72,17.3-8.46,17.22-18.06,0,.1-1.29,.22-1.29,.35Z"/><path class="b" d="M73.89,24.45c.42,6.62-4.29,13.43-11.1,14.41-5.29,.76-10.99-1.12-14.52-5.19-4.37-5.04-4.85-13.01,.23-17.73,3.96-3.67,9.47-4.46,14.61-3.18,5.69,1.42,10.25,5.66,10.78,11.68,0-.07,1.3-.26,1.29-.35-1.07-12.2-16.72-14.95-25.69-9.52-2.89,1.75-5.17,4.51-5.79,7.89-.67,3.67,.35,7.61,2.54,10.61,3.57,4.88,10.04,7.1,15.91,6.02,2.67-.49,5.34-1.4,7.53-3.04,3.78-2.82,5.8-7.25,5.5-11.96,0,.08-1.29,.25-1.29,.35Z"/></g><g><path class="b" d="M.24,53.36c.41-.61,.98-1.05,1.71-1.3,.7-.19,1.43-.21,2.2-.07,.72,.15,1.33,.49,1.84,1.03,.25,.28,.46,.57,.63,.89,.17,.31,.28,.66,.34,1.02,.07,.37,.1,.78,.09,1.24-.01,.46-.07,.98-.15,1.55-.1,.57-.2,1.08-.3,1.52s-.18,.81-.25,1.12c.23,.6,.56,1.02,.97,1.25,.4,.23,.82,.34,1.27,.33,.42-.01,.63,.15,.61,.48-.01,.37-.31,.55-.88,.55-.54,0-1.04-.17-1.49-.51-.48-.35-.8-.66-.94-.92-.34,.67-.81,1.13-1.41,1.36-.64,.25-1.34,.32-2.09,.22-.37-.06-.7-.16-1-.31-.3-.15-.55-.36-.76-.64C.21,61.67,0,60.94,0,59.97c-.01-.94,.28-1.76,.88-2.48,.58-.7,1.32-1.02,2.2-.94,.85,.04,1.48,.26,1.89,.66,.4,.37,.66,.89,.79,1.56,.26-1.8,.34-2.98,.22-3.54-.13-.54-.38-1.02-.75-1.43-.35-.42-.8-.7-1.34-.83-.56-.12-1.1-.1-1.62,.07-.54,.16-.98,.49-1.32,.99-.35,.22-.6,.26-.75,.11-.16-.16-.15-.42,.04-.77Zm4.79,5.8c-.28-.57-.53-.97-.77-1.21-.21-.22-.6-.37-1.19-.44-.59-.04-1.02,.07-1.32,.35-.16,.15-.29,.3-.38,.45s-.17,.31-.23,.47c-.06,.18-.1,.37-.12,.58-.02,.21-.04,.45-.06,.71-.01,.5,.13,.95,.44,1.36,.28,.41,.68,.65,1.21,.72,.51,.07,.97,.02,1.38-.15,.41-.2,.72-.53,.94-.99,.19-.47,.22-1.09,.09-1.87Z"/><path class="b" d="M32.78,53.1c.45,.13,.59,.5,.42,1.1l-6.24,7.86,5.56,.02c.35,.06,.53,.24,.53,.55s-.18,.49-.53,.55l-6.68-.02c-.35-.1-.46-.42-.33-.94l6.37-7.99-7.16,.02c-.4-.04-.57-.22-.53-.53,.04-.31,.22-.5,.53-.57l8.06-.04Zm-6.3-3.25c-.21-.23-.2-.46,.02-.68,.1-.09,.22-.13,.35-.13s.24,.05,.33,.15l1.65,1.71,1.62-1.71c.22-.22,.45-.23,.68-.02,.22,.22,.23,.45,.02,.68l-2,2.09c-.09,.09-.2,.13-.33,.13-.15,0-.26-.04-.35-.13l-2-2.09Z"/><path class="b" d="M40.07,50.43c-.34,.23-.68,.24-1.03,.01-.34-.22-.51-.53-.51-.91s.15-.66,.44-.84c.28-.19,.6-.21,.95-.07,.34,.14,.54,.41,.6,.82,.04,.42-.11,.75-.45,.98Zm-.1,12.46c-.1,.48-.33,.71-.68,.68-.37-.03-.51-.26-.44-.68l-.09-9.38c.01-.48,.2-.72,.55-.7,.37,.03,.56,.26,.57,.68l.09,9.4Z"/><path class="b" d="M50.52,62.74c-.09,.45-.27,.68-.55,.68-.31,0-.5-.23-.57-.68l-.02-14.4c.03-.57,.21-.83,.53-.79,.34,.04,.53,.31,.59,.79l.02,14.4Z"/><path class="b" d="M62.03,50.43c-.34,.23-.68,.24-1.03,.01-.34-.22-.51-.53-.51-.91s.15-.66,.44-.84c.28-.19,.6-.21,.95-.07,.34,.14,.54,.41,.6,.82,.04,.42-.11,.75-.45,.98Zm-.1,12.46c-.1,.48-.33,.71-.68,.68-.37-.03-.51-.26-.44-.68l-.09-9.38c.01-.48,.2-.72,.55-.7,.37,.03,.56,.26,.57,.68l.09,9.4Z"/><path class="b" d="M88.95,55.25c-.34-.59-.82-1-1.45-1.23-.66-.22-1.32-.3-1.98-.24-.7,.07-1.23,.29-1.58,.66-.37,.41-.55,.86-.55,1.36-.01,.53,.27,1,.86,1.41,.29,.19,.58,.35,.88,.49s.59,.24,.88,.3c.57,.1,1.21,.35,1.91,.75,.69,.42,1.13,.94,1.34,1.54,.22,.63,.15,1.25-.2,1.87-.37,.63-.94,1.03-1.71,1.21-.78,.19-1.57,.22-2.39,.09-.79-.1-1.45-.37-1.98-.81-.53-.45-.86-1.07-1.01-1.84-.1-.44,.01-.68,.35-.72,.32-.04,.53,.1,.61,.42,.06,.56,.28,1.02,.66,1.41,.34,.35,.86,.59,1.58,.7,.69,.1,1.34,.06,1.95-.13,.6-.2,.97-.62,1.1-1.25,.13-.61-.07-1.12-.61-1.52-.28-.18-.6-.34-.96-.49-.36-.15-.77-.29-1.24-.41-.45-.12-.86-.26-1.22-.43-.36-.17-.68-.38-.96-.63-.57-.47-.86-1.09-.86-1.87-.01-.75,.26-1.42,.83-2.02,.56-.56,1.27-.88,2.13-.97,.42-.04,.82-.05,1.19-.02s.71,.09,1.03,.18c.61,.19,1.21,.57,1.8,1.14,.38,.41,.53,.72,.46,.94-.09,.25-.38,.29-.88,.13Zm-5.53-5.2c-.21-.23-.2-.46,.02-.68,.1-.09,.22-.13,.35-.13s.24,.05,.33,.15l1.65,1.71,1.62-1.71c.22-.22,.45-.23,.68-.02,.22,.22,.23,.45,.02,.68l-2,2.09c-.09,.09-.2,.13-.33,.13-.15,0-.26-.04-.35-.13l-2-2.09Z"/><path class="b" d="M96.79,54.02h4.22c.38,.1,.56,.3,.53,.59-.03,.29-.23,.47-.59,.53h-4.19c-.09,3.69,0,5.75,.29,6.17,.28,.48,.65,.78,1.12,.88,.47,.13,1.08,.22,1.84,.26,.4,.02,.58,.18,.55,.51-.04,.31-.26,.48-.64,.5-.97,0-1.73-.11-2.28-.33-.54-.2-1.02-.64-1.43-1.32-.42-.66-.58-2.88-.46-6.65l-2.9,.04c-.41-.03-.61-.2-.61-.51,0-.34,.2-.54,.61-.61l2.94-.04-.02-4.76c.03-.5,.19-.74,.48-.72,.29,.01,.47,.21,.53,.59l.02,4.87Zm1.8-6.25c-.21-.23-.2-.46,.02-.68,.1-.09,.22-.13,.35-.13s.24,.05,.33,.15l1.65,1.71,1.62-1.71c.22-.22,.45-.23,.68-.02,.22,.22,.23,.45,.02,.68l-2,2.09c-.09,.09-.2,.13-.33,.13-.15,0-.26-.04-.35-.13l-2-2.09Z"/><path class="b" d="M104.44,53.36c.41-.61,.98-1.05,1.71-1.3,.7-.19,1.43-.21,2.2-.07,.72,.15,1.33,.49,1.84,1.03,.25,.28,.46,.57,.63,.89,.17,.31,.28,.66,.34,1.02,.07,.37,.1,.78,.09,1.24-.01,.46-.07,.98-.15,1.55-.1,.57-.2,1.08-.3,1.52s-.18,.81-.25,1.12c.23,.6,.56,1.02,.97,1.25,.4,.23,.82,.34,1.27,.33,.42-.01,.63,.15,.61,.48-.01,.37-.31,.55-.88,.55-.54,0-1.04-.17-1.49-.51-.48-.35-.8-.66-.94-.92-.34,.67-.81,1.13-1.41,1.36-.64,.25-1.34,.32-2.09,.22-.37-.06-.7-.16-1-.31-.3-.15-.55-.36-.76-.64-.42-.51-.64-1.25-.64-2.22-.01-.94,.28-1.76,.88-2.48,.58-.7,1.32-1.02,2.2-.94,.85,.04,1.48,.26,1.89,.66,.4,.37,.66,.89,.79,1.56,.26-1.8,.34-2.98,.22-3.54-.13-.54-.38-1.02-.75-1.43-.35-.42-.8-.7-1.34-.83-.56-.12-1.1-.1-1.62,.07-.54,.16-.98,.49-1.32,.99-.35,.22-.6,.26-.75,.11-.16-.16-.15-.42,.04-.77Zm4.79,5.8c-.28-.57-.53-.97-.77-1.21-.21-.22-.6-.37-1.19-.44-.59-.04-1.02,.07-1.32,.35-.16,.15-.29,.3-.38,.45s-.17,.31-.23,.47c-.06,.18-.1,.37-.12,.58-.02,.21-.04,.45-.06,.71-.01,.5,.13,.95,.44,1.36,.28,.41,.68,.65,1.21,.72,.51,.07,.97,.02,1.38-.15,.41-.2,.72-.53,.94-.99,.19-.47,.22-1.09,.09-1.87Z"/><path class="b" d="M122.89,55.25c-.34-.59-.82-1-1.45-1.23-.66-.22-1.32-.3-1.98-.24-.7,.07-1.23,.29-1.58,.66-.37,.41-.55,.86-.55,1.36-.01,.53,.27,1,.86,1.41,.29,.19,.58,.35,.88,.49s.59,.24,.88,.3c.57,.1,1.21,.35,1.91,.75,.69,.42,1.13,.94,1.34,1.54,.22,.63,.15,1.25-.2,1.87-.37,.63-.94,1.03-1.71,1.21-.78,.19-1.57,.22-2.39,.09-.79-.1-1.45-.37-1.98-.81-.53-.45-.86-1.07-1.01-1.84-.1-.44,.01-.68,.35-.72,.32-.04,.53,.1,.61,.42,.06,.56,.28,1.02,.66,1.41,.34,.35,.86,.59,1.58,.7,.69,.1,1.34,.06,1.95-.13,.6-.2,.97-.62,1.1-1.25,.13-.61-.07-1.12-.61-1.52-.28-.18-.6-.34-.96-.49-.36-.15-.77-.29-1.24-.41-.45-.12-.86-.26-1.22-.43-.36-.17-.68-.38-.96-.63-.57-.47-.86-1.09-.86-1.87-.01-.75,.26-1.42,.83-2.02,.56-.56,1.27-.88,2.13-.97,.42-.04,.82-.05,1.19-.02s.71,.09,1.03,.18c.61,.19,1.21,.57,1.8,1.14,.38,.41,.53,.72,.46,.94-.09,.25-.38,.29-.88,.13Z"/><path class="b" d="M130.72,54.02h4.22c.38,.1,.56,.3,.53,.59-.03,.29-.23,.47-.59,.53h-4.19c-.09,3.69,0,5.75,.29,6.17,.28,.48,.65,.78,1.12,.88,.47,.13,1.08,.22,1.84,.26,.4,.02,.58,.18,.55,.51-.04,.31-.26,.48-.64,.5-.97,0-1.73-.11-2.28-.33-.54-.2-1.02-.64-1.43-1.32-.42-.66-.58-2.88-.46-6.65l-2.9,.04c-.41-.03-.61-.2-.61-.51,0-.34,.2-.54,.61-.61l2.94-.04-.02-4.76c.03-.5,.19-.74,.48-.72,.29,.01,.47,.21,.53,.59l.02,4.87Z"/><path class="b" d="M138.21,53.18c.04-.45,.18-.69,.4-.7,.23,0,.38,.22,.44,.66v3.03c.22-.94,.58-1.68,1.08-2.22,.5-.54,1.21-.84,2.13-.9,.97-.07,1.73,.27,2.31,1.03,.29,.37,.53,.83,.72,1.38,.19,.56,.32,1.21,.4,1.95,.07,.73,.1,1.57,.09,2.5-.02,.94-.07,1.97-.18,3.1-.12,.38-.32,.54-.61,.48-.28-.09-.41-.31-.4-.66,.1-1.08,.16-2.06,.18-2.93s0-1.64-.07-2.32c-.13-1.3-.42-2.24-.88-2.81-.47-.53-1.02-.76-1.67-.7-.64,.06-1.22,.49-1.73,1.3-.23,.4-.43,.83-.59,1.32-.16,.48-.27,1.01-.33,1.58-.04,.57-.08,1.11-.11,1.61-.03,.5-.04,.97-.02,1.39,.01,.42,.01,.81-.01,1.14-.02,.34-.05,.62-.08,.86-.48,.37-.81,.27-.97-.29l-.09-9.82Z"/><path class="b" d="M149.3,58.91c.07,.48,.19,.91,.34,1.28,.15,.37,.35,.69,.6,.96,.23,.25,.53,.47,.9,.66,.37,.19,.8,.34,1.3,.46,1.01,.23,2.09,.17,3.25-.2,.4-.09,.62,0,.68,.24,.06,.28-.1,.5-.48,.68-1.14,.4-2.26,.5-3.36,.33-1.13-.16-2.06-.61-2.79-1.34-.75-.75-1.16-1.77-1.25-3.07-.06-.66-.05-1.25,.01-1.77,.07-.52,.17-.98,.32-1.37,.16-.38,.34-.72,.55-1.01,.21-.29,.44-.55,.7-.77,.51-.42,1.08-.72,1.71-.9,.31-.07,.62-.12,.93-.13,.31-.01,.61,0,.89,.02,.6,.09,1.14,.29,1.62,.61,.26,.15,.5,.32,.7,.52,.2,.2,.38,.41,.53,.65,.26,.48,.48,1.05,.64,1.71,.13,.66,.15,1.22,.07,1.67-.09,.45-.3,.7-.64,.75l-7.22,.02Zm6.92-.9c.15-1.08-.04-2.01-.57-2.77-.59-.76-1.24-1.19-1.95-1.3-.76-.12-1.45-.07-2.06,.15-.31,.12-.6,.29-.87,.52-.27,.23-.51,.52-.71,.87-.44,.69-.64,1.52-.61,2.5l6.78,.02Z"/><path class="b" d="M162.7,61.87c0,.29-.09,.53-.27,.71-.18,.18-.43,.28-.75,.28-.25,0-.48-.09-.68-.26-.2-.17-.3-.4-.3-.67,0-.31,.1-.55,.3-.73,.2-.18,.44-.27,.72-.27,.32,0,.56,.09,.72,.28,.16,.19,.25,.41,.25,.66Z"/><path class="b" d="M170.68,61.87c0,.29-.09,.53-.27,.71-.18,.18-.43,.28-.75,.28-.25,0-.48-.09-.68-.26-.2-.17-.3-.4-.3-.67,0-.31,.1-.55,.3-.73,.2-.18,.44-.27,.72-.27,.32,0,.56,.09,.72,.28,.16,.19,.25,.41,.25,.66Z"/><path class="b" d="M178.65,61.87c0,.29-.09,.53-.27,.71-.18,.18-.43,.28-.75,.28-.25,0-.48-.09-.68-.26-.2-.17-.3-.4-.3-.67,0-.31,.1-.55,.3-.73,.2-.18,.44-.27,.72-.27,.32,0,.56,.09,.72,.28,.16,.19,.25,.41,.25,.66Z"/></g></svg>