<?xml version="1.0" encoding="UTF-8"?><svg id="a" xmlns="http://www.w3.org/2000/svg" viewBox="0 0 545.46 385.52"><defs><style>.b{fill:#f2f2f2;}.c{fill:#ece6f4;}.d{fill:#ffa37b;}.e{fill:#3f3d3d;}.f{fill:#595959;}</style></defs><g><path class="d" d="M192.76,93.9c11.6,16.21,30.72,25.43,49.48,30.56,22.51,6.16,46.41,6.79,69.5,4.05,13.55-1.61,26.87-4.51,40-8.18,.56-.16,.56-.17,0-.02-.82,.21-1.64,.43-2.46,.66-23.21,6.48-47.87,9.31-71.93,7.71-19.79-1.31-39.92-5.72-57.39-15.38-9.19-5.08-17.58-11.75-23.72-20.33-.26-.36-3.25,1.25-3.48,.93h0Z"/><path class="d" d="M275.38,40.65c.16,10.24-3.73,19.99-10.77,27.4-3.01,3.17-6.51,5.88-10.35,7.97-2.02,1.1-4.13,2.03-6.31,2.76-.22,.07-.45,.14-.68,.22-.99,.33,.52-.13,.6-.14-.64,.11-1.26,.29-1.9,.41-1.15,.21-2.31,.37-3.47,.46-7.28,.57-14.63-1.39-20.53-5.71-4.72-3.46-8.35-8.22-10.88-13.46-5.27-10.92-6.19-24.13-2.79-35.74,1.64-5.6,4.38-10.94,8.36-15.23,1.94-2.09,4.17-3.92,6.63-5.39,1.28-.76,2.61-1.42,3.99-1.98,.75-.3,1.52-.56,2.29-.82,.21-.07,.79-.27-.05,0-1.02,.34,.18-.01,.35-.05,.74-.15,1.48-.26,2.23-.35,19.69-2.37,38.43,13.49,42.42,32.26,.52,2.43,.79,4.91,.86,7.4,0-.21,2.9-.52,2.9-.78-.28-10.75-4.87-21.04-12.67-28.44C258.46,4.64,248.78,.04,238.83,0c-4.19-.02-8.31,.93-12.28,2.21-2.9,.93-5.64,2.29-8.12,4.05-4.95,3.53-8.67,8.54-11.1,14.08-5.14,11.68-5.12,25.76-.57,37.62,2.2,5.73,5.58,11.08,10.22,15.14,5.52,4.83,12.65,7.48,19.99,7.5,4.26,.01,8.37-.95,12.44-2.14,4.36-1.28,8.48-3.33,12.17-5.99,8.04-5.8,14-14.41,15.97-24.18,.56-2.77,.79-5.59,.74-8.41,0,.22-2.9,.51-2.9,.78Z"/><path class="d" d="M335.36,55.01c.64,9.01-2.58,17.65-9,24-2.25,2.23-4.82,4.11-7.62,5.59-1.33,.7-2.7,1.31-4.11,1.83-.44,.16-.88,.31-1.32,.45-.17,.05-.34,.1-.5,.16-.59,.2,1.12-.24,.5-.14-.89,.14-1.77,.37-2.66,.51-12.03,1.81-25-2.44-33.02-11.73-4.52-5.23-7.24-11.93-7.7-18.83-.32-4.75,.46-9.63,2.7-13.87,1.48-2.81,3.59-5.32,5.94-7.44,2.12-1.9,4.51-3.5,7.05-4.78,1.3-.65,2.64-1.23,4.01-1.72,.38-.14,.75-.26,1.13-.39,.29-.1,1.78-.52,.53-.18s.18-.02,.44-.08c.48-.1,.95-.2,1.43-.28,5.77-1.03,11.77-.86,17.47,.49,11.21,2.67,21.27,10.33,24.02,21.93,.35,1.47,.57,2.97,.7,4.48-.01-.16,2.91-.58,2.9-.78-.51-6.23-2.96-12.09-7.23-16.68s-9.55-7.44-15.3-9.15-12.37-2.19-18.53-1.26-12.21,2.77-17.38,6.04c-6.19,3.93-11.02,9.96-12.38,17.28-1.47,7.9,.55,16.4,5.03,23.03,7.37,10.89,21.08,16.33,33.98,14.86,6.31-.72,12.88-2.75,18.17-6.32,6.91-4.66,11.93-11.96,13.31-20.23,.42-2.51,.51-5.04,.33-7.58,.01,.17-2.91,.57-2.9,.78Z"/><g><path class="e" d="M245.88,67.72c1.74,1.16,2.96,2.77,3.66,4.84,.54,1.98,.6,4.05,.19,6.2-.41,2.02-1.39,3.76-2.91,5.21-.79,.7-1.62,1.29-2.51,1.77-.89,.47-1.85,.8-2.88,.96-1.03,.21-2.2,.29-3.5,.25-1.3-.04-2.76-.19-4.37-.43-1.61-.29-3.04-.57-4.28-.84-1.24-.27-2.29-.51-3.16-.71-1.7,.66-2.87,1.57-3.53,2.73-.66,1.12-.97,2.31-.93,3.6,.04,1.2-.41,1.78-1.36,1.74-1.03-.04-1.55-.87-1.55-2.48s.47-2.94,1.43-4.22c.99-1.36,1.86-2.25,2.6-2.67-1.9-.95-3.18-2.27-3.84-3.97-.7-1.82-.91-3.78-.62-5.89,.17-1.03,.46-1.97,.87-2.82,.41-.85,1.01-1.56,1.8-2.14,1.45-1.2,3.53-1.8,6.26-1.8,2.64-.04,4.98,.78,7.01,2.48,1.98,1.65,2.87,3.72,2.67,6.2-.12,2.4-.74,4.17-1.86,5.33-1.03,1.12-2.5,1.86-4.4,2.23,5.08,.74,8.41,.95,9.98,.62,1.53-.37,2.87-1.08,4.03-2.11,1.2-.99,1.98-2.25,2.36-3.78,.33-1.57,.27-3.1-.19-4.59-.46-1.53-1.39-2.77-2.79-3.72-.62-.99-.72-1.7-.31-2.11,.46-.46,1.18-.41,2.17,.12Zm-16.37,13.52c1.61-.79,2.75-1.51,3.41-2.17,.62-.58,1.03-1.7,1.24-3.35,.12-1.65-.21-2.89-.99-3.72-.41-.46-.84-.82-1.27-1.08-.43-.27-.88-.49-1.33-.65-.5-.17-1.04-.28-1.64-.34-.6-.06-1.27-.11-2.02-.15-1.41-.04-2.69,.37-3.84,1.24-1.16,.78-1.84,1.92-2.05,3.41-.21,1.45-.06,2.75,.43,3.91,.58,1.16,1.51,2.05,2.79,2.67,1.32,.54,3.08,.62,5.27,.25Z"/><path class="e" d="M235.09,110.73l-14.63,10.6c-1.24,.54-2.05,.43-2.42-.31s-.21-1.41,.5-1.98l15.13-10.54-3.84-4.71c-3.02-.17-6.37-.04-10.04,.37-1.24-.04-1.94-.43-2.11-1.18s.35-1.3,1.55-1.67c12.23-.91,25.87-1.03,40.92-.37,1.2,.25,1.76,.78,1.67,1.61-.04,.87-.66,1.3-1.86,1.3-4.84-.12-9.46-.22-13.86-.28-4.4-.06-8.63-.11-12.68-.15l13.58,17.11c.54,.91,.43,1.61-.31,2.11-.87,.45-1.74,.25-2.6-.62l-8.99-11.28Z"/><path class="e" d="M245.07,134.89c-10.33,.08-16.6,.45-18.79,1.12-2.23,.66-3.8,1.59-4.71,2.79-.87,1.12-1.3,2.52-1.3,4.22s.47,3.12,1.43,4.4c.95,1.32,2.73,2.36,5.33,3.1,2.6,.83,8.43,1.2,17.48,1.12,2.07,.16,2.62,1.09,1.67,2.79-3.76,.41-13.02,.54-27.78,.37-1.2-.08-1.86-.56-1.98-1.43-.04-.83,.62-1.18,1.98-1.05,1.57,0,3.31-.06,5.21-.19-1.12-.46-2.07-.98-2.85-1.58-.79-.6-1.43-1.25-1.92-1.95-.95-1.45-1.49-3.25-1.61-5.39-.08-2.11,.41-4.13,1.49-6.08,1.03-1.86,3.2-3.27,6.51-4.22,1.65-.46,4.12-.75,7.41-.9,3.29-.15,7.43-.18,12.43-.09,1.32,.17,1.98,.72,1.98,1.67,0,.87-.66,1.3-1.98,1.3Z"/><path class="e" d="M259.83,170.43c-11.78-.12-18.54-.19-20.27-.19,1.4,.99,2.48,2.85,3.22,5.58,.66,2.69,.6,5.46-.19,8.31-.79,2.77-2.32,4.84-4.59,6.2-1.12,.62-2.22,1.09-3.32,1.43-1.1,.33-2.2,.5-3.32,.5-2.27,0-4.4-.43-6.39-1.3-2.07-.95-3.64-2.13-4.71-3.53-1.12-1.45-1.84-3.8-2.17-7.07-.29-3.31,.27-5.95,1.67-7.94,.7-1.03,1.46-1.88,2.26-2.54,.81-.66,1.64-1.18,2.51-1.55,.91-.33,1.87-.59,2.88-.77,1.01-.19,2.1-.28,3.25-.28,1.16-.04,4.18-.03,9.08,.03,4.9,.06,11.69,.13,20.37,.22,1.24,.25,1.84,.81,1.8,1.67-.04,.83-.74,1.24-2.11,1.24Zm-38.56,5.58c-.7,2.19-.85,4.09-.43,5.7,.21,.83,.46,1.61,.74,2.36s.66,1.45,1.12,2.11c.87,1.32,2.77,2.31,5.7,2.98,2.89,.66,5.41,.33,7.56-.99,2.11-1.41,3.49-3.18,4.15-5.33,.66-2.15,.5-4.55-.5-7.19-.46-1.28-1.03-2.32-1.74-3.13-.7-.81-1.49-1.37-2.36-1.71-.91-.29-1.87-.51-2.88-.65-1.01-.15-2.06-.18-3.13-.09-2.23,.12-3.99,.64-5.27,1.55-.66,.45-1.24,1.04-1.74,1.77-.5,.72-.91,1.6-1.24,2.63Z"/><path class="e" d="M258.6,51.35c-.03,.74-.64,1.32-1.38,1.34-6.45,.1-11.98,.12-16.56,.04-4.9-.08-8.75-.27-11.56-.56-5.58-.66-9.18-2.63-10.79-5.89-1.57-3.31-.74-6.47,2.48-9.49,1.07-.62,1.94-.85,2.6-.68,.62,.17,.64,.64,.06,1.43-2.85,2.48-3.7,4.96-2.54,7.44,1.07,2.52,4.13,4.03,9.18,4.53,4.82,.4,13.86,.53,27.1,.39,.8,0,1.45,.66,1.42,1.46h0Z"/></g><g><path class="e" d="M319.84,68.2c-.03,.74-.64,1.32-1.38,1.34-6.45,.1-11.98,.12-16.56,.04-4.9-.08-8.75-.27-11.56-.56-5.58-.66-9.18-2.63-10.79-5.89-1.57-3.31-.74-6.47,2.48-9.49,1.07-.62,1.94-.85,2.6-.68,.62,.17,.64,.64,.06,1.43-2.85,2.48-3.7,4.96-2.54,7.44,1.07,2.52,4.13,4.03,9.18,4.53,4.82,.4,13.86,.53,27.1,.39,.8,0,1.45,.66,1.42,1.46h0Z"/><path class="e" d="M306.76,83.83c1.74,1.16,2.96,2.77,3.66,4.84,.54,1.98,.6,4.05,.19,6.2-.41,2.02-1.39,3.76-2.91,5.21-.79,.7-1.62,1.29-2.51,1.77-.89,.47-1.85,.8-2.88,.96-1.03,.21-2.2,.29-3.5,.25-1.3-.04-2.76-.19-4.37-.43-1.61-.29-3.04-.57-4.28-.84-1.24-.27-2.29-.51-3.16-.71-1.7,.66-2.87,1.57-3.53,2.73-.66,1.12-.97,2.31-.93,3.6,.04,1.2-.41,1.78-1.36,1.74-1.03-.04-1.55-.87-1.55-2.48s.47-2.94,1.43-4.22c.99-1.36,1.86-2.25,2.6-2.67-1.9-.95-3.18-2.27-3.84-3.97-.7-1.82-.91-3.78-.62-5.89,.17-1.03,.46-1.97,.87-2.82,.41-.85,1.01-1.56,1.8-2.14,1.45-1.2,3.53-1.8,6.26-1.8,2.64-.04,4.98,.78,7.01,2.48,1.98,1.65,2.87,3.72,2.67,6.2-.12,2.4-.74,4.17-1.86,5.33-1.03,1.12-2.5,1.86-4.4,2.23,5.08,.74,8.41,.95,9.98,.62,1.53-.37,2.87-1.08,4.03-2.11,1.2-.99,1.98-2.25,2.36-3.78,.33-1.57,.27-3.1-.19-4.59-.46-1.53-1.39-2.77-2.79-3.72-.62-.99-.72-1.7-.31-2.11,.46-.46,1.18-.41,2.17,.12Zm-16.37,13.52c1.61-.79,2.75-1.51,3.41-2.17,.62-.58,1.03-1.7,1.24-3.35,.12-1.65-.21-2.89-.99-3.72-.41-.46-.84-.82-1.27-1.08-.43-.27-.88-.49-1.33-.65-.5-.17-1.04-.28-1.64-.34-.6-.06-1.27-.11-2.02-.16-1.41-.04-2.69,.37-3.84,1.24-1.16,.79-1.84,1.92-2.05,3.41-.21,1.45-.06,2.75,.43,3.91,.58,1.16,1.51,2.05,2.79,2.67,1.32,.54,3.08,.62,5.27,.25Z"/><path class="e" d="M307.26,117.19c1.28,.12,1.94,.5,1.98,1.12,0,.66-.62,1.08-1.86,1.24h-8.56c2.64,.62,4.73,1.63,6.26,3.04s2.38,3.41,2.54,6.01c.21,2.73-.76,4.9-2.91,6.51-1.03,.83-2.33,1.51-3.91,2.05-1.57,.54-3.41,.91-5.52,1.12-2.07,.21-4.42,.29-7.07,.25-2.65-.04-5.56-.21-8.74-.5-1.08-.33-1.53-.91-1.36-1.74,.25-.79,.87-1.16,1.86-1.12,3.06,.29,5.82,.45,8.28,.5,2.46,.04,4.64-.02,6.54-.19,3.68-.37,6.32-1.2,7.94-2.48,1.49-1.32,2.15-2.89,1.98-4.71-.17-1.82-1.38-3.45-3.66-4.9-1.12-.66-2.36-1.22-3.72-1.67-1.36-.46-2.85-.76-4.46-.93-1.61-.12-3.13-.23-4.56-.31-1.43-.08-2.74-.1-3.94-.06-1.2,.04-2.27,.03-3.22-.03-.95-.06-1.76-.13-2.42-.22-1.03-1.36-.76-2.27,.81-2.73l27.71-.25Z"/><path class="e" d="M295.97,157.74l-14.63,10.6c-1.24,.54-2.05,.43-2.42-.31s-.21-1.41,.5-1.98l15.13-10.54-3.84-4.71c-3.02-.17-6.37-.04-10.04,.37-1.24-.04-1.94-.43-2.11-1.18s.35-1.3,1.55-1.67c12.23-.91,25.87-1.03,40.92-.37,1.2,.25,1.76,.78,1.67,1.61-.04,.87-.66,1.3-1.86,1.3-4.84-.12-9.46-.22-13.86-.28-4.4-.06-8.63-.11-12.68-.16l13.58,17.11c.54,.91,.43,1.61-.31,2.11-.87,.45-1.74,.25-2.6-.62l-8.99-11.28Z"/><path class="e" d="M306.76,176.83c1.74,1.16,2.96,2.77,3.66,4.84,.54,1.98,.6,4.05,.19,6.2-.41,2.02-1.39,3.76-2.91,5.21-.79,.7-1.62,1.29-2.51,1.77-.89,.47-1.85,.8-2.88,.96-1.03,.21-2.2,.29-3.5,.25-1.3-.04-2.76-.19-4.37-.43-1.61-.29-3.04-.57-4.28-.84-1.24-.27-2.29-.51-3.16-.71-1.7,.66-2.87,1.57-3.53,2.73-.66,1.12-.97,2.31-.93,3.6,.04,1.2-.41,1.78-1.36,1.74-1.03-.04-1.55-.87-1.55-2.48s.47-2.94,1.43-4.22c.99-1.36,1.86-2.25,2.6-2.67-1.9-.95-3.18-2.27-3.84-3.97-.7-1.82-.91-3.78-.62-5.89,.17-1.03,.46-1.97,.87-2.82,.41-.85,1.01-1.56,1.8-2.14,1.45-1.2,3.53-1.8,6.26-1.8,2.64-.04,4.98,.78,7.01,2.48,1.98,1.65,2.87,3.72,2.67,6.2-.12,2.4-.74,4.17-1.86,5.33-1.03,1.12-2.5,1.86-4.4,2.23,5.08,.74,8.41,.95,9.98,.62,1.53-.37,2.87-1.08,4.03-2.11,1.2-.99,1.98-2.25,2.36-3.78,.33-1.57,.27-3.1-.19-4.59-.46-1.53-1.39-2.77-2.79-3.72-.62-.99-.72-1.7-.31-2.11,.46-.46,1.18-.41,2.17,.12Zm-16.37,13.52c1.61-.79,2.75-1.51,3.41-2.17,.62-.58,1.03-1.7,1.24-3.35,.12-1.65-.21-2.89-.99-3.72-.41-.46-.84-.82-1.27-1.08-.43-.27-.88-.49-1.33-.65-.5-.17-1.04-.28-1.64-.34-.6-.06-1.27-.11-2.02-.16-1.41-.04-2.69,.37-3.84,1.24-1.16,.79-1.84,1.92-2.05,3.41-.21,1.45-.06,2.75,.43,3.91,.58,1.16,1.51,2.05,2.79,2.67,1.32,.54,3.08,.62,5.27,.25Z"/></g></g><g><path class="e" d="M178.87,319.4c-.04,1.81-.05,3.51-.05,5.11s.03,3.06,.08,4.41c.07,2.71,.41,4.62,1.02,5.75,.63,1.13,1.57,1.66,2.82,1.58,1.27-.05,2.19-.61,2.77-1.67,.55-1.02,.91-2.47,1.07-4.35,.12-1.83,.21-3.51,.24-5.05,.02-.77,.02-1.61,.01-2.51,0-.9-.03-1.89-.07-2.97,.07-.63,.3-.93,.7-.91,.39,.04,.57,.34,.54,.91,.04,1.09,.06,2.1,.07,3.02,0,.92,0,1.77-.01,2.54-.02,1.54-.13,3.38-.32,5.51-.18,2.11-.66,3.76-1.45,4.94-.84,1.2-2,1.83-3.47,1.88-1.52,.09-2.71-.46-3.57-1.64-.43-.59-.77-1.42-1.03-2.49-.26-1.07-.43-2.36-.5-3.88-.16-3.1-.19-6.52-.08-10.26,.07-.54,.29-.81,.65-.81,.34,0,.54,.3,.59,.89Z"/><path class="e" d="M200.82,325.45c.56,.16,.73,.61,.51,1.34l-7.63,9.62,6.8,.03c.43,.07,.65,.29,.65,.67s-.21,.6-.65,.67l-8.17-.03c-.43-.12-.56-.51-.4-1.16l7.79-9.78-8.76,.03c-.48-.05-.7-.27-.65-.65,.05-.38,.27-.61,.65-.7l9.86-.05Zm-7.71-3.98c-.25-.29-.24-.56,.03-.83,.13-.11,.27-.16,.43-.16s.3,.06,.4,.19l2.02,2.1,1.99-2.1c.27-.27,.55-.28,.83-.03,.27,.27,.28,.55,.03,.83l-2.45,2.55c-.11,.11-.24,.16-.4,.16-.18,0-.32-.05-.43-.16l-2.45-2.55Z"/><path class="e" d="M230.65,319.59c.07,4.23,.09,7.53,.07,9.92s-.09,3.83-.17,4.35c-.07,.52-.21,.99-.4,1.42-.2,.43-.44,.82-.73,1.18-.27,.36-.58,.65-.94,.87-.36,.22-.77,.4-1.24,.52-.9,.25-1.85,.28-2.88,.08-1.07-.16-1.94-.59-2.61-1.29-.34-.36-.63-.75-.86-1.18s-.4-.91-.51-1.45c-.27-1.06-.24-2.28,.08-3.68,.29-1.36,1.05-2.4,2.28-3.12,1.18-.68,2.42-.91,3.71-.7,1.24,.23,2.25,.74,3.04,1.53v-8.52c0-.63,.2-.95,.59-.97,.38-.02,.56,.32,.56,1.02Zm-1.1,12.79c.09-1.02-.11-1.94-.59-2.77-.5-.86-1.33-1.41-2.47-1.64-1.17-.25-2.2-.12-3.12,.4-.93,.5-1.53,1.39-1.8,2.66-.3,1.31-.16,2.5,.43,3.57,.63,1.11,1.36,1.77,2.2,1.99,.82,.23,1.7,.22,2.63-.03,.84-.21,1.5-.68,1.96-1.4,.23-.36,.41-.77,.52-1.22,.12-.46,.19-.98,.23-1.57Z"/><path class="e" d="M234.57,325.56c.05-.55,.21-.84,.48-.86,.29,0,.47,.27,.54,.81v3.71c.27-1.15,.71-2.05,1.32-2.71,.61-.66,1.48-1.03,2.61-1.1,1.18-.09,2.12,.33,2.82,1.26,.36,.45,.65,1.01,.89,1.69s.39,1.48,.48,2.39c.09,.9,.12,1.92,.11,3.06-.02,1.15-.09,2.41-.21,3.79-.14,.47-.39,.66-.75,.59-.34-.11-.5-.38-.48-.81,.12-1.33,.2-2.52,.21-3.59,.02-1.07,0-2.01-.08-2.83-.16-1.59-.52-2.74-1.07-3.44-.57-.65-1.25-.93-2.04-.86-.79,.07-1.5,.6-2.12,1.59-.29,.48-.53,1.02-.73,1.61-.2,.59-.33,1.24-.4,1.93-.05,.7-.1,1.36-.13,1.98-.04,.62-.04,1.19-.03,1.71,.02,.52,.01,.99-.01,1.4s-.06,.76-.09,1.05c-.59,.45-.99,.33-1.18-.35l-.11-12.01Z"/><path class="e" d="M248.14,332.57c.09,.59,.23,1.12,.42,1.57s.43,.85,.74,1.17c.29,.3,.65,.57,1.1,.81,.45,.23,.98,.42,1.59,.56,1.24,.29,2.56,.21,3.98-.24,.48-.11,.76,0,.83,.29,.07,.34-.12,.62-.59,.83-1.4,.48-2.77,.62-4.11,.4-1.38-.2-2.52-.74-3.41-1.64-.91-.91-1.42-2.17-1.53-3.76-.07-.81-.07-1.53,.01-2.16,.08-.63,.21-1.2,.39-1.68,.2-.47,.42-.88,.67-1.24,.25-.36,.54-.67,.86-.94,.63-.52,1.33-.89,2.1-1.1,.38-.09,.76-.14,1.14-.16,.38-.02,.75,0,1.09,.03,.73,.11,1.4,.36,1.99,.75,.32,.18,.61,.39,.86,.63,.25,.24,.47,.51,.64,.79,.32,.59,.58,1.29,.78,2.1,.16,.81,.19,1.49,.08,2.04-.11,.56-.37,.86-.78,.91l-8.84,.03Zm8.46-1.1c.18-1.33-.05-2.45-.7-3.39-.72-.93-1.51-1.46-2.39-1.58-.93-.14-1.77-.08-2.53,.19-.38,.14-.73,.35-1.06,.63-.33,.28-.62,.63-.87,1.06-.54,.84-.79,1.86-.75,3.06l8.3,.03Z"/><path class="e" d="M269.55,328.08c-.41-.72-1-1.22-1.77-1.5-.81-.27-1.61-.37-2.42-.3-.86,.09-1.5,.36-1.93,.81-.45,.5-.67,1.06-.67,1.67-.02,.65,.33,1.22,1.05,1.72,.36,.23,.72,.43,1.07,.6,.36,.17,.72,.29,1.08,.36,.7,.12,1.48,.43,2.34,.91,.84,.52,1.39,1.15,1.64,1.88,.27,.77,.19,1.53-.24,2.28-.45,.77-1.15,1.26-2.1,1.48-.95,.23-1.93,.27-2.93,.11-.97-.12-1.77-.46-2.42-.99-.64-.55-1.06-1.31-1.24-2.26-.12-.54,.02-.83,.43-.89,.39-.05,.64,.12,.75,.51,.07,.68,.34,1.25,.81,1.72,.41,.43,1.06,.72,1.93,.86,.84,.13,1.64,.07,2.39-.16,.73-.25,1.18-.76,1.34-1.53,.16-.75-.09-1.37-.75-1.85-.34-.21-.73-.42-1.17-.6-.44-.19-.95-.35-1.52-.5-.56-.14-1.05-.32-1.49-.52-.44-.21-.83-.46-1.17-.77-.7-.57-1.05-1.33-1.05-2.28-.02-.91,.32-1.74,1.02-2.47,.68-.68,1.55-1.07,2.61-1.18,.52-.05,1-.06,1.45-.03,.45,.04,.87,.11,1.26,.21,.75,.23,1.49,.7,2.2,1.4,.47,.5,.65,.89,.56,1.16-.11,.3-.47,.36-1.08,.16Z"/><path class="e" d="M295.75,337.57c-.39,.72-.81,.75-1.24,.11l-4.27-11.47c-.23-.59-.16-.95,.21-1.07,.38-.11,.66,.04,.86,.46l3.82,10.42,4.35-10.26c.3-.38,.61-.47,.91-.3,.3,.2,.34,.53,.11,.99l-4.76,11.12Z"/><path class="e" d="M309.48,322.71c-.63,.43-1.25,.44-1.88,.03s-.94-.97-.94-1.67,.27-1.21,.81-1.53c.52-.34,1.1-.39,1.75-.13,.63,.25,.99,.75,1.1,1.5,.07,.77-.21,1.37-.83,1.8Zm-.46,14.73c-.13,.59-.4,.87-.83,.83-.45-.04-.63-.31-.54-.83l-.11-11.47c.02-.59,.24-.88,.67-.86,.45,.04,.68,.31,.7,.83l.11,11.5Z"/><path class="e" d="M318,332.57c.09,.59,.23,1.12,.42,1.57,.19,.46,.43,.85,.74,1.17,.29,.3,.65,.57,1.1,.81,.45,.23,.98,.42,1.58,.56,1.24,.29,2.56,.21,3.98-.24,.48-.11,.76,0,.83,.29,.07,.34-.12,.62-.59,.83-1.4,.48-2.77,.62-4.11,.4-1.38-.2-2.52-.74-3.41-1.64s-1.42-2.17-1.53-3.76c-.07-.81-.07-1.53,.01-2.16,.08-.63,.21-1.2,.39-1.68,.2-.47,.42-.88,.67-1.24s.54-.67,.86-.94c.63-.52,1.33-.89,2.1-1.1,.38-.09,.76-.14,1.14-.16s.75,0,1.09,.03c.73,.11,1.4,.36,1.99,.75,.32,.18,.61,.39,.86,.63,.25,.24,.47,.51,.64,.79,.32,.59,.58,1.29,.78,2.1,.16,.81,.19,1.49,.08,2.04-.11,.56-.37,.86-.78,.91l-8.84,.03Zm8.46-1.1c.18-1.33-.05-2.45-.7-3.39-.72-.93-1.51-1.46-2.39-1.58-.93-.14-1.77-.08-2.53,.19-.38,.14-.73,.35-1.06,.63-.33,.28-.62,.63-.87,1.06-.54,.84-.79,1.86-.75,3.06l8.3,.03Z"/><path class="e" d="M331.08,328.78c.16-.84,.47-1.52,.91-2.04,.47-.43,1-.64,1.61-.62,.3,.02,.58,.09,.82,.23,.24,.13,.45,.33,.63,.58,.34,.54,.6,1.34,.78,2.42,.09-.48,.21-.93,.35-1.34s.33-.76,.56-1.05c.47-.61,1.16-.86,2.07-.75,.95,.11,1.67,.8,2.15,2.07,.52,1.29,.68,4.38,.48,9.27,0,.41-.2,.63-.59,.64-.41,0-.6-.31-.56-.94,.2-3.69,.09-6.22-.32-7.58-.41-1.42-.91-2.13-1.48-2.15-.57-.04-1.05,.5-1.42,1.61-.2,.55-.36,1.54-.5,2.96-.13,1.42-.22,3.26-.25,5.54-.43,.73-.82,.68-1.18-.16-.02-2.02-.05-3.7-.11-5.02-.05-1.33-.13-2.31-.24-2.96-.21-1.31-.64-1.97-1.29-1.99-.66,0-1.19,.71-1.59,2.12-.41,1.43-.64,2.89-.7,4.38-.04,.75-.06,1.43-.08,2.03-.02,.6-.03,1.12-.03,1.54-.39,.77-.79,.83-1.18,.19l-.05-12.17c.04-.61,.24-.91,.62-.91,.38,.02,.56,.25,.56,.7l.03,3.41Z"/><path class="e" d="M344.87,332.57c.09,.59,.23,1.12,.42,1.57,.19,.46,.43,.85,.74,1.17,.29,.3,.65,.57,1.1,.81,.45,.23,.98,.42,1.58,.56,1.24,.29,2.56,.21,3.98-.24,.48-.11,.76,0,.83,.29,.07,.34-.12,.62-.59,.83-1.4,.48-2.77,.62-4.11,.4-1.38-.2-2.52-.74-3.41-1.64s-1.42-2.17-1.53-3.76c-.07-.81-.07-1.53,.01-2.16,.08-.63,.21-1.2,.39-1.68,.2-.47,.42-.88,.67-1.24s.54-.67,.86-.94c.63-.52,1.33-.89,2.1-1.1,.38-.09,.76-.14,1.14-.16s.75,0,1.09,.03c.73,.11,1.4,.36,1.99,.75,.32,.18,.61,.39,.86,.63,.25,.24,.47,.51,.64,.79,.32,.59,.58,1.29,.78,2.1,.16,.81,.19,1.49,.08,2.04-.11,.56-.37,.86-.78,.91l-8.84,.03Zm8.46-1.1c.18-1.33-.05-2.45-.7-3.39-.72-.93-1.51-1.46-2.39-1.58-.93-.14-1.77-.08-2.53,.19-.38,.14-.73,.35-1.06,.63-.33,.28-.62,.63-.87,1.06-.54,.84-.79,1.86-.75,3.06l8.3,.03Z"/><path class="e" d="M360.86,334.53c.73,.93,.9,2.06,.51,3.39-.39,1.34-1.04,2.34-1.93,2.98-.91,.61-1.46,.74-1.64,.4-.18-.32,0-.67,.56-1.05,.55-.39,.96-.82,1.21-1.26,.11-.25,.19-.5,.25-.75,.06-.25,.09-.5,.09-.75-.81,.38-1.46,.47-1.96,.29-.52-.2-.84-.53-.97-.99-.16-.45-.16-.9,0-1.37,.18-.47,.38-.81,.62-1.05,.27-.21,.71-.39,1.32-.54,.61-.11,1.25,.12,1.93,.7Z"/><path class="e" d="M186.47,361.16c-.52-1-1.36-1.68-2.53-2.04-1.15-.32-2.28-.2-3.41,.38-1.15,.56-1.85,1.63-2.12,3.22-.29,1.56-.03,2.99,.78,4.3,.79,1.27,1.97,1.88,3.55,1.83,1.5-.02,2.65-.5,3.44-1.45,.34-.23,.64-.28,.89-.13,.22,.16,.18,.5-.11,1.02-.97,1.13-2.05,1.77-3.25,1.93-1.2,.18-2.23,.06-3.09-.35-.43-.2-.82-.43-1.17-.71-.35-.28-.67-.59-.95-.93-.61-.66-1.02-1.57-1.24-2.71-.25-1.11-.2-2.38,.16-3.82,.32-1.47,1.16-2.58,2.5-3.33,1.33-.77,2.75-.94,4.27-.51,1.49,.47,2.59,1.35,3.31,2.66,.11,.59,.07,.95-.11,1.08-.21,.12-.52-.02-.91-.43Zm-6.88-7.71c-.25-.29-.24-.56,.03-.83,.12-.11,.27-.16,.43-.16s.3,.06,.4,.19l2.02,2.1,1.99-2.1c.27-.27,.55-.28,.83-.03,.27,.27,.28,.55,.03,.83l-2.45,2.55c-.11,.11-.24,.16-.4,.16-.18,0-.32-.05-.43-.16l-2.45-2.55Z"/><path class="e" d="M196.52,357.51c1.04-.04,1.97,.29,2.79,.97,.86,.66,1.48,1.63,1.85,2.9,.39,1.25,.43,2.62,.11,4.08-.32,1.5-1.02,2.71-2.1,3.63-1.09,.93-2.34,1.32-3.73,1.16-1.45-.16-2.59-.67-3.41-1.53-.81-.81-1.33-1.91-1.59-3.3-.25-1.33-.14-2.69,.32-4.08,.43-1.38,1.16-2.39,2.18-3.04,1-.66,2.19-.92,3.57-.78Zm.35,1.05c-1.4-.09-2.5,.14-3.3,.7-.86,.56-1.45,1.4-1.77,2.53-.38,1.15-.48,2.27-.3,3.36,.09,.55,.23,1.06,.43,1.5,.2,.45,.47,.85,.81,1.21,.63,.7,1.53,1.1,2.71,1.21,1.15,.11,2.19-.22,3.14-.99,.9-.75,1.46-1.74,1.69-2.96,.23-1.22,.18-2.36-.16-3.44-.34-1.07-.81-1.82-1.4-2.23-.27-.2-.56-.38-.86-.54-.31-.16-.64-.28-.99-.35Z"/><path class="e" d="M229.25,360.33c-.41-.72-1-1.22-1.77-1.5-.81-.27-1.61-.37-2.42-.3-.86,.09-1.5,.36-1.93,.81-.45,.5-.67,1.06-.67,1.67-.02,.65,.33,1.22,1.05,1.72,.36,.23,.72,.43,1.07,.6,.36,.17,.72,.29,1.08,.36,.7,.12,1.48,.43,2.34,.91,.84,.52,1.39,1.15,1.64,1.88,.27,.77,.19,1.53-.24,2.28-.45,.77-1.15,1.26-2.1,1.48-.95,.23-1.93,.27-2.93,.11-.97-.12-1.77-.46-2.42-.99-.65-.55-1.06-1.31-1.24-2.26-.13-.54,.02-.83,.43-.89,.39-.05,.64,.12,.75,.51,.07,.68,.34,1.25,.81,1.72,.41,.43,1.06,.72,1.93,.86,.84,.13,1.64,.07,2.39-.16,.73-.25,1.18-.76,1.34-1.53,.16-.75-.09-1.37-.75-1.85-.34-.21-.73-.42-1.17-.6-.44-.19-.95-.35-1.52-.5-.56-.14-1.05-.32-1.49-.52-.44-.21-.83-.46-1.17-.77-.7-.57-1.05-1.33-1.05-2.28-.02-.91,.32-1.74,1.02-2.47,.68-.68,1.55-1.07,2.61-1.18,.52-.05,1-.06,1.45-.03,.45,.04,.87,.11,1.26,.21,.75,.23,1.49,.7,2.2,1.4,.47,.5,.65,.89,.56,1.16-.11,.3-.47,.36-1.07,.16Z"/><path class="e" d="M239.62,354.95c-.63,.43-1.25,.44-1.88,.03s-.94-.97-.94-1.67,.27-1.21,.81-1.53c.52-.34,1.1-.39,1.75-.13,.63,.25,.99,.75,1.1,1.5,.07,.77-.21,1.37-.83,1.8Zm-.46,14.73c-.13,.59-.4,.87-.83,.83-.45-.04-.63-.31-.54-.83l-.11-11.47c.02-.59,.24-.88,.67-.86,.45,.04,.68,.31,.7,.83l.11,11.5Z"/><path class="e" d="M269.07,357.51c1.04-.04,1.97,.29,2.79,.97,.86,.66,1.48,1.63,1.85,2.9,.39,1.25,.43,2.62,.11,4.08-.32,1.5-1.02,2.71-2.1,3.63-1.09,.93-2.34,1.32-3.73,1.16-1.45-.16-2.59-.67-3.41-1.53-.81-.81-1.33-1.91-1.58-3.3-.25-1.33-.14-2.69,.32-4.08,.43-1.38,1.16-2.39,2.18-3.04,1-.66,2.19-.92,3.57-.78Zm.35,1.05c-1.4-.09-2.5,.14-3.3,.7-.86,.56-1.45,1.4-1.77,2.53-.38,1.15-.48,2.27-.3,3.36,.09,.55,.23,1.06,.43,1.5,.2,.45,.47,.85,.81,1.21,.63,.7,1.53,1.1,2.71,1.21,1.15,.11,2.19-.22,3.14-.99,.9-.75,1.46-1.74,1.69-2.96,.23-1.22,.18-2.36-.16-3.44-.34-1.07-.81-1.82-1.4-2.23-.27-.2-.56-.38-.86-.54s-.64-.28-.99-.35Z"/><path class="e" d="M278.02,351.97c-.05,5.11-.08,8.03-.08,8.79,.43-.61,1.24-1.08,2.42-1.4,1.16-.29,2.36-.26,3.6,.08,1.2,.34,2.1,1,2.69,1.99,.27,.48,.47,.96,.62,1.44s.21,.95,.21,1.44c0,.99-.19,1.91-.56,2.77-.41,.9-.92,1.58-1.53,2.04-.63,.48-1.65,.8-3.06,.94-1.43,.12-2.58-.12-3.44-.73-.45-.3-.82-.63-1.1-.98-.29-.35-.51-.71-.67-1.09-.14-.39-.25-.81-.34-1.25-.08-.44-.12-.91-.12-1.41-.02-.5-.01-1.81,.01-3.94,.03-2.12,.06-5.06,.09-8.83,.11-.54,.35-.8,.73-.78,.36,.02,.54,.32,.54,.91Zm2.42,16.71c.95,.3,1.77,.37,2.47,.19,.36-.09,.7-.2,1.02-.32,.32-.12,.63-.29,.91-.48,.57-.38,1-1.2,1.29-2.47,.29-1.25,.14-2.35-.43-3.28-.61-.91-1.38-1.51-2.31-1.8-.93-.29-1.97-.21-3.12,.21-.56,.2-1.01,.45-1.36,.75-.35,.3-.6,.64-.74,1.02-.13,.39-.22,.81-.28,1.25-.06,.44-.08,.89-.04,1.36,.05,.97,.28,1.73,.67,2.28,.2,.29,.45,.54,.77,.75,.31,.21,.69,.39,1.14,.54Z"/><path class="e" d="M295.08,369.49c-.11,.56-.33,.83-.67,.83-.38,0-.61-.28-.7-.83l-.03-17.63c.04-.7,.25-1.02,.64-.97,.41,.05,.65,.38,.73,.97l.03,17.63Z"/><path class="e" d="M304.56,364.81c.09,.59,.23,1.12,.42,1.57,.19,.46,.43,.85,.74,1.17,.29,.3,.65,.57,1.1,.81,.45,.23,.98,.42,1.59,.56,1.24,.29,2.56,.21,3.98-.24,.48-.11,.76,0,.83,.29,.07,.34-.13,.62-.59,.83-1.4,.48-2.77,.62-4.11,.4-1.38-.2-2.52-.74-3.41-1.64-.91-.91-1.42-2.17-1.53-3.76-.07-.81-.07-1.53,.01-2.16,.08-.63,.21-1.2,.39-1.68,.2-.47,.42-.88,.67-1.24,.25-.36,.54-.67,.86-.94,.63-.52,1.33-.89,2.1-1.1,.38-.09,.76-.14,1.14-.16,.38-.02,.75,0,1.09,.03,.73,.11,1.4,.36,1.99,.75,.32,.18,.61,.39,.86,.63,.25,.24,.46,.51,.64,.79,.32,.59,.58,1.29,.78,2.1,.16,.81,.19,1.49,.08,2.04-.11,.56-.37,.86-.78,.91l-8.84,.03Zm8.46-1.1c.18-1.33-.05-2.45-.7-3.39-.72-.93-1.51-1.46-2.39-1.58-.93-.14-1.77-.08-2.53,.19-.38,.14-.73,.35-1.06,.63-.33,.28-.62,.63-.87,1.06-.54,.84-.79,1.86-.75,3.06l8.3,.03Z"/><path class="e" d="M326.19,361.16c-.52-1-1.36-1.68-2.53-2.04-1.15-.32-2.28-.2-3.41,.38-1.15,.56-1.85,1.63-2.12,3.22-.29,1.56-.03,2.99,.78,4.3,.79,1.27,1.97,1.88,3.55,1.83,1.5-.02,2.65-.5,3.44-1.45,.34-.23,.64-.28,.89-.13,.21,.16,.18,.5-.11,1.02-.97,1.13-2.05,1.77-3.25,1.93-1.2,.18-2.23,.06-3.09-.35-.43-.2-.82-.43-1.17-.71-.35-.28-.67-.59-.95-.93-.61-.66-1.02-1.57-1.24-2.71-.25-1.11-.2-2.38,.16-3.82,.32-1.47,1.16-2.58,2.5-3.33,1.33-.77,2.75-.94,4.27-.51,1.49,.47,2.59,1.35,3.3,2.66,.11,.59,.07,.95-.11,1.08-.21,.12-.52-.02-.91-.43Zm-6.88-7.71c-.25-.29-.24-.56,.03-.83,.12-.11,.27-.16,.43-.16s.29,.06,.4,.19l2.02,2.1,1.99-2.1c.27-.27,.55-.28,.83-.03,.27,.27,.28,.55,.03,.83l-2.45,2.55c-.11,.11-.24,.16-.4,.16-.18,0-.32-.05-.43-.16l-2.45-2.55Z"/><path class="e" d="M336.35,354.95c-.63,.43-1.25,.44-1.88,.03s-.94-.97-.94-1.67,.27-1.21,.81-1.53c.52-.34,1.1-.39,1.75-.13,.63,.25,.99,.75,1.1,1.5,.07,.77-.21,1.37-.83,1.8Zm-.46,14.73c-.13,.59-.4,.87-.83,.83-.45-.04-.63-.31-.54-.83l-.11-11.47c.02-.59,.24-.88,.67-.86,.45,.04,.68,.31,.7,.83l.11,11.5Z"/><path class="e" d="M344.87,364.81c.09,.59,.23,1.12,.42,1.57,.19,.46,.43,.85,.74,1.17,.29,.3,.65,.57,1.1,.81,.45,.23,.98,.42,1.58,.56,1.24,.29,2.56,.21,3.98-.24,.48-.11,.76,0,.83,.29,.07,.34-.12,.62-.59,.83-1.4,.48-2.77,.62-4.11,.4-1.38-.2-2.52-.74-3.41-1.64s-1.42-2.17-1.53-3.76c-.07-.81-.07-1.53,.01-2.16,.08-.63,.21-1.2,.39-1.68,.2-.47,.42-.88,.67-1.24s.54-.67,.86-.94c.63-.52,1.33-.89,2.1-1.1,.38-.09,.76-.14,1.14-.16s.75,0,1.09,.03c.73,.11,1.4,.36,1.99,.75,.32,.18,.61,.39,.86,.63,.25,.24,.47,.51,.64,.79,.32,.59,.58,1.29,.78,2.1,.16,.81,.19,1.49,.08,2.04-.11,.56-.37,.86-.78,.91l-8.84,.03Zm8.46-1.1c.18-1.33-.05-2.45-.7-3.39-.72-.93-1.51-1.46-2.39-1.58-.93-.14-1.77-.08-2.53,.19-.38,.14-.73,.35-1.06,.63-.33,.28-.62,.63-.87,1.06-.54,.84-.79,1.86-.75,3.06l8.3,.03Z"/><path class="e" d="M366.28,360.33c-.41-.72-1-1.22-1.77-1.5-.81-.27-1.61-.37-2.42-.3-.86,.09-1.5,.36-1.93,.81-.45,.5-.67,1.06-.67,1.67-.02,.65,.33,1.22,1.05,1.72,.36,.23,.72,.43,1.07,.6,.36,.17,.72,.29,1.08,.36,.7,.12,1.48,.43,2.34,.91,.84,.52,1.39,1.15,1.64,1.88,.27,.77,.19,1.53-.24,2.28-.45,.77-1.15,1.26-2.1,1.48-.95,.23-1.93,.27-2.93,.11-.97-.12-1.77-.46-2.42-.99-.65-.55-1.06-1.31-1.24-2.26-.12-.54,.02-.83,.43-.89,.39-.05,.65,.12,.75,.51,.07,.68,.34,1.25,.81,1.72,.41,.43,1.06,.72,1.93,.86,.84,.13,1.64,.07,2.39-.16,.73-.25,1.18-.76,1.34-1.53,.16-.75-.09-1.37-.75-1.85-.34-.21-.73-.42-1.17-.6-.44-.19-.94-.35-1.52-.5-.56-.14-1.05-.32-1.49-.52-.44-.21-.83-.46-1.17-.77-.7-.57-1.05-1.33-1.05-2.28-.02-.91,.32-1.74,1.02-2.47,.68-.68,1.55-1.07,2.61-1.18,.52-.05,1-.06,1.45-.03,.45,.04,.87,.11,1.26,.21,.75,.23,1.49,.7,2.2,1.4,.46,.5,.65,.89,.56,1.16-.11,.3-.47,.36-1.07,.16Zm-6.77-6.37c-.25-.29-.24-.56,.03-.83,.12-.11,.27-.16,.43-.16s.29,.06,.4,.19l2.01,2.1,1.99-2.1c.27-.27,.55-.28,.83-.03,.27,.27,.28,.55,.03,.83l-2.45,2.55c-.11,.11-.24,.16-.4,.16-.18,0-.32-.05-.43-.16l-2.45-2.55Z"/></g><path class="b" d="M146.83,61.84c.34-2.52,.44-5.09,.37-7.6-.41-13.84-6.15-28.28-17.87-35.66-11.44-7.21-25.98-6.46-39.47-5.46-15.17,1.12-30.33,2.24-45.5,3.36-9.08,.67-18.93,1.66-25.57,7.9-5.19,4.87-7.41,12.11-8.58,19.13-1.49,8.94-1.48,18.67,3.22,26.42,5.27,8.68,15.46,13.21,25.46,14.92,19.91,3.41,40.19,2.93,60.26,4.72,2.33,.21,4.71,.43,6.86,1.37,1.84,.8,3.42,2.1,5.03,3.3,8.14,6.1,17.72,10.29,27.73,12.11-1.27-7.13-8.74-13.26-6.59-20.18,1.22-3.91,5.11-6.22,7.97-9.16,3.93-4.05,5.91-9.49,6.68-15.15Z"/><path class="b" d="M149.07,173.6c11.78,45.38-60.15,47.65-88.09,46.75-16.57-.53-33.14-4.12-47.39-12.9-13.2-8.13-18.67-25.25-7.84-36.8,14.31-15.25,34.91-22.15,55.32-23.88,10.38-.88,20.87-.5,31.2,.8,11.36,1.44,15.91-2.9,24.28-9.78,5.51-4.53,12.48-10.17,20.01-10.17,1.32-.45,2.54,.88,1.92,2.1-2.11,4.18-6.39,10.45-6.9,21.06-.05,1.6,4.3,3.43,5.37,4.27,5.69,4.48,10.22,11.25,12.11,18.54Z"/><path class="c" d="M383.03,93.79c-9.83-30.24,50.21-31.76,73.53-31.16,13.83,.35,27.66,2.75,39.55,8.6,11.02,5.42,15.58,16.83,6.54,24.52-11.94,10.16-29.14,14.76-46.17,15.91-8.67,.59-17.42,.34-26.04-.54-9.48-.96-13.28,1.93-20.27,6.52-4.6,3.02-10.41,6.78-16.7,6.78-1.1,.3-2.12-.59-1.61-1.4,1.76-2.79,5.34-6.97,5.76-14.04,.04-1.07-3.59-2.28-4.48-2.84-4.75-2.99-8.53-7.5-10.11-12.35Z"/><g><path class="f" d="M42.68,34.16c1.15,0,2.02,.3,2.62,.89,.59,.59,.89,1.42,.89,2.49s-.3,1.9-.89,2.5c-.59,.6-1.46,.89-2.62,.88h-3.49v4.67h-1.52v-11.42h5.01Zm-.51,5.47c.86,.01,1.5-.17,1.9-.53,.4-.36,.6-.89,.6-1.57s-.2-1.2-.6-1.56c-.4-.36-1.03-.54-1.9-.54h-2.98v4.19h2.98Z"/><path class="f" d="M47.62,39.76c.17-.53,.43-.99,.77-1.38,.34-.39,.76-.7,1.26-.92,.5-.22,1.08-.34,1.73-.34s1.24,.11,1.74,.34,.91,.53,1.26,.92c.34,.39,.6,.85,.77,1.38,.17,.53,.26,1.1,.26,1.7s-.09,1.17-.26,1.7c-.17,.52-.43,.98-.77,1.37-.34,.39-.76,.69-1.26,.91-.5,.22-1.08,.33-1.74,.33s-1.23-.11-1.73-.33c-.5-.22-.92-.52-1.26-.91-.34-.39-.6-.85-.77-1.37-.17-.52-.26-1.09-.26-1.7s.08-1.18,.26-1.7Zm1.38,3.04c.13,.39,.32,.71,.55,.98,.24,.26,.51,.46,.82,.6s.65,.21,1,.21,.69-.07,1-.21,.59-.34,.82-.6,.42-.59,.55-.98c.13-.39,.2-.83,.2-1.34s-.07-.95-.2-1.34c-.13-.39-.32-.72-.55-.98-.23-.27-.51-.47-.82-.61-.31-.14-.65-.21-1-.21s-.69,.07-1,.21c-.31,.14-.59,.34-.82,.61-.23,.27-.42,.6-.55,.98s-.2,.83-.2,1.34,.07,.95,.2,1.34Z"/><path class="f" d="M58.44,34.16v11.42h-1.36v-11.42h1.36Z"/><path class="f" d="M66.23,37.32v1.74h.03c.33-.67,.74-1.17,1.22-1.49,.48-.32,1.09-.47,1.82-.45v1.44c-.54,0-1.01,.07-1.39,.22-.38,.15-.69,.37-.93,.66s-.41,.64-.51,1.05c-.11,.41-.16,.88-.16,1.42v3.68h-1.36v-8.27h1.28Z"/><path class="f" d="M73.57,46.69c-.16,.41-.32,.75-.47,1.02s-.33,.5-.51,.68c-.19,.18-.39,.3-.62,.38s-.49,.12-.79,.12c-.16,0-.32-.01-.48-.03-.16-.02-.31-.06-.46-.11v-1.25c.12,.05,.25,.1,.41,.14,.15,.04,.29,.06,.39,.06,.28,0,.51-.07,.7-.2,.19-.13,.33-.32,.42-.57l.56-1.39-3.28-8.22h1.54l2.42,6.77h.03l2.32-6.77h1.44l-3.6,9.38Z"/><path class="f" d="M82.65,38.52h-4.67v-1.2h6.43v.93l-5.06,6.14h5.28v1.2h-6.98v-1.04l4.99-6.03Zm-2.24-2.34l-1.66-2.29h1.34l1.1,1.54,1.12-1.54h1.23l-1.65,2.29h-1.49Z"/><path class="f" d="M93.33,45.56c-.23,.14-.56,.21-.98,.21-.35,0-.63-.1-.84-.3s-.31-.52-.31-.97c-.37,.45-.81,.77-1.3,.97s-1.03,.3-1.61,.3c-.37,0-.73-.04-1.06-.13-.34-.08-.63-.22-.87-.4-.25-.18-.44-.42-.58-.71s-.22-.65-.22-1.06c0-.47,.08-.85,.24-1.15,.16-.3,.37-.54,.63-.73,.26-.19,.56-.33,.9-.42,.34-.1,.68-.18,1.03-.24,.37-.07,.73-.13,1.06-.17,.34-.04,.63-.09,.89-.16s.46-.17,.61-.3c.15-.13,.22-.33,.22-.58,0-.3-.06-.54-.17-.72-.11-.18-.26-.32-.43-.42-.18-.1-.37-.16-.59-.19-.22-.03-.43-.05-.65-.05-.58,0-1.06,.11-1.44,.33-.38,.22-.59,.63-.62,1.24h-1.36c.02-.51,.13-.94,.32-1.3,.19-.35,.45-.64,.77-.86,.32-.22,.68-.38,1.1-.47,.41-.1,.85-.14,1.32-.14,.37,0,.74,.03,1.11,.08s.7,.16,1,.33,.54,.4,.72,.69c.18,.3,.27,.69,.27,1.17v4.25c0,.32,.02,.55,.06,.7,.04,.15,.16,.22,.38,.22,.12,0,.26-.02,.42-.06v1.06Zm-2.21-4.24c-.17,.13-.39,.22-.67,.28s-.57,.11-.87,.14c-.3,.04-.61,.08-.92,.13-.31,.05-.59,.12-.83,.23s-.45,.26-.6,.45c-.16,.2-.23,.46-.23,.8,0,.22,.05,.41,.14,.56,.09,.15,.21,.28,.35,.37,.14,.1,.31,.16,.5,.21,.19,.04,.39,.06,.61,.06,.45,0,.83-.06,1.15-.18,.32-.12,.58-.28,.78-.46,.2-.19,.35-.39,.45-.6,.1-.22,.14-.42,.14-.61v-1.39Z"/><path class="f" d="M96.68,43.81v1.62c0,.61-.14,1.13-.42,1.57-.28,.44-.73,.75-1.34,.93v-.8c.18-.06,.33-.16,.46-.28,.12-.12,.22-.26,.3-.4,.08-.14,.13-.29,.15-.44s.03-.29,.02-.42h-.94v-1.78h1.78Z"/><path class="f" d="M38.85,56.52v1.12h.03c.22-.46,.58-.79,1.06-1,.48-.21,1.01-.31,1.58-.31,.64,0,1.2,.12,1.67,.35,.47,.23,.87,.55,1.18,.95,.31,.4,.55,.86,.71,1.38s.24,1.08,.24,1.66-.08,1.14-.23,1.66c-.15,.52-.39,.98-.7,1.37-.31,.39-.71,.7-1.18,.92-.47,.22-1.03,.34-1.66,.34-.2,0-.43-.02-.68-.06-.25-.04-.5-.11-.74-.21-.25-.1-.48-.23-.7-.39s-.4-.37-.55-.62h-.03v4.26h-1.36v-11.42h1.36Zm4.89,2.94c-.1-.37-.26-.7-.46-.98-.21-.29-.48-.52-.8-.69-.33-.17-.71-.26-1.14-.26-.46,0-.85,.09-1.17,.27-.32,.18-.58,.42-.78,.71-.2,.29-.35,.63-.44,1-.09,.37-.14,.75-.14,1.14,0,.41,.05,.8,.14,1.18,.1,.38,.25,.71,.46,1,.21,.29,.48,.52,.81,.7,.33,.18,.73,.26,1.2,.26s.86-.09,1.18-.27c.31-.18,.57-.42,.76-.72,.19-.3,.33-.64,.42-1.02,.09-.38,.13-.78,.13-1.18,0-.38-.05-.76-.15-1.13Z"/><path class="f" d="M46.74,58.96c.17-.53,.43-.99,.77-1.38,.34-.39,.76-.7,1.26-.92,.5-.22,1.08-.34,1.73-.34s1.24,.11,1.74,.34,.91,.53,1.26,.92c.34,.39,.6,.85,.77,1.38,.17,.53,.26,1.1,.26,1.7s-.09,1.17-.26,1.7c-.17,.52-.43,.98-.77,1.37-.34,.39-.76,.69-1.26,.91-.5,.22-1.08,.33-1.74,.33s-1.23-.11-1.73-.33c-.5-.22-.92-.52-1.26-.91-.34-.39-.6-.85-.77-1.37-.17-.52-.26-1.09-.26-1.7s.08-1.18,.26-1.7Zm1.38,3.04c.13,.39,.32,.71,.55,.98,.24,.26,.51,.46,.82,.6s.65,.21,1,.21,.69-.07,1-.21,.59-.34,.82-.6,.42-.59,.55-.98c.13-.39,.2-.83,.2-1.34s-.07-.95-.2-1.34c-.13-.39-.32-.72-.55-.98-.23-.27-.51-.47-.82-.61-.31-.14-.65-.21-1-.21s-.69,.07-1,.21c-.31,.14-.59,.34-.82,.61-.23,.27-.42,.6-.55,.98s-.2,.83-.2,1.34,.07,.95,.2,1.34Z"/><path class="f" d="M57.56,53.36v11.42h-1.36v-11.42h1.36Z"/><path class="f" d="M65.48,53.36v4.37h.03c.11-.26,.26-.47,.45-.65,.19-.18,.41-.32,.65-.43,.24-.11,.49-.19,.75-.25,.26-.05,.51-.08,.76-.08,.54,0,1,.07,1.36,.22,.36,.15,.66,.36,.88,.62,.22,.27,.38,.58,.47,.95,.09,.37,.14,.78,.14,1.22v5.44h-1.36v-5.6c0-.51-.15-.92-.45-1.22-.3-.3-.71-.45-1.23-.45-.42,0-.78,.06-1.08,.19-.3,.13-.56,.31-.76,.54-.2,.23-.35,.51-.46,.82-.1,.31-.15,.66-.15,1.03v4.67h-1.36v-11.42h1.36Z"/><path class="f" d="M74.24,56.52v1.74h.03c.33-.67,.74-1.17,1.22-1.49,.48-.32,1.09-.47,1.82-.45v1.44c-.54,0-1.01,.07-1.39,.22-.38,.15-.69,.37-.93,.66s-.41,.64-.51,1.05c-.11,.41-.16,.88-.16,1.42v3.68h-1.36v-8.27h1.28Z"/><path class="f" d="M85.67,64.76c-.23,.14-.56,.21-.98,.21-.35,0-.63-.1-.84-.3s-.31-.52-.31-.97c-.37,.45-.81,.77-1.3,.97s-1.03,.3-1.61,.3c-.37,0-.73-.04-1.06-.13-.34-.08-.63-.22-.87-.4-.25-.18-.44-.42-.58-.71s-.22-.65-.22-1.06c0-.47,.08-.85,.24-1.15,.16-.3,.37-.54,.63-.73,.26-.19,.56-.33,.9-.42,.34-.1,.68-.18,1.03-.24,.37-.07,.73-.13,1.06-.17,.34-.04,.63-.09,.89-.16s.46-.17,.61-.3c.15-.13,.22-.33,.22-.58,0-.3-.06-.54-.17-.72-.11-.18-.26-.32-.43-.42-.18-.1-.37-.16-.59-.19-.22-.03-.43-.05-.65-.05-.58,0-1.06,.11-1.44,.33-.38,.22-.59,.63-.62,1.24h-1.36c.02-.51,.13-.94,.32-1.3,.19-.35,.45-.64,.77-.86,.32-.22,.68-.38,1.1-.47,.41-.1,.85-.14,1.32-.14,.37,0,.74,.03,1.11,.08s.7,.16,1,.33,.54,.4,.72,.69c.18,.3,.27,.69,.27,1.17v4.25c0,.32,.02,.55,.06,.7,.04,.15,.16,.22,.38,.22,.12,0,.26-.02,.42-.06v1.06Zm-2.21-4.24c-.17,.13-.39,.22-.67,.28s-.57,.11-.87,.14c-.3,.04-.61,.08-.92,.13-.31,.05-.59,.12-.83,.23s-.45,.26-.6,.45c-.16,.2-.23,.46-.23,.8,0,.22,.05,.41,.14,.56,.09,.15,.21,.28,.35,.37,.14,.1,.31,.16,.5,.21,.19,.04,.39,.06,.61,.06,.45,0,.83-.06,1.15-.18,.32-.12,.58-.28,.78-.46,.2-.19,.35-.39,.45-.6,.1-.22,.14-.42,.14-.61v-1.39Z"/><path class="f" d="M88.21,56.52v1.31h.03c.57-1,1.46-1.5,2.69-1.5,.54,0,1,.07,1.36,.22,.36,.15,.66,.36,.88,.62,.22,.27,.38,.58,.47,.95,.09,.37,.14,.78,.14,1.22v5.44h-1.36v-5.6c0-.51-.15-.92-.45-1.22-.3-.3-.71-.45-1.23-.45-.42,0-.78,.06-1.08,.19-.3,.13-.56,.31-.76,.54-.2,.23-.35,.51-.46,.82-.1,.31-.15,.66-.15,1.03v4.67h-1.36v-8.27h1.28Z"/><path class="f" d="M95.64,58.96c.17-.53,.43-.99,.77-1.38,.34-.39,.76-.7,1.26-.92,.5-.22,1.08-.34,1.73-.34s1.24,.11,1.74,.34,.91,.53,1.26,.92c.34,.39,.6,.85,.77,1.38,.17,.53,.26,1.1,.26,1.7s-.09,1.17-.26,1.7c-.17,.52-.43,.98-.77,1.37-.34,.39-.76,.69-1.26,.91-.5,.22-1.08,.33-1.74,.33s-1.23-.11-1.73-.33c-.5-.22-.92-.52-1.26-.91-.34-.39-.6-.85-.77-1.37-.17-.52-.26-1.09-.26-1.7s.08-1.18,.26-1.7Zm1.38,3.04c.13,.39,.32,.71,.55,.98,.24,.26,.51,.46,.82,.6s.65,.21,1,.21,.69-.07,1-.21,.59-.34,.82-.6,.42-.59,.55-.98c.13-.39,.2-.83,.2-1.34s-.07-.95-.2-1.34c-.13-.39-.32-.72-.55-.98-.23-.27-.51-.47-.82-.61-.31-.14-.65-.21-1-.21s-.69,.07-1,.21c-.31,.14-.59,.34-.82,.61-.23,.27-.42,.6-.55,.98s-.2,.83-.2,1.34,.07,.95,.2,1.34Z"/><path class="f" d="M106.45,53.36v11.42h-1.36v-11.42h1.36Z"/><path class="f" d="M110,53.36v6.77l3.78-3.62h1.82l-3.28,3.01,3.52,5.26h-1.73l-2.83-4.32-1.28,1.18v3.14h-1.36v-11.42h1.36Z"/><path class="f" d="M120.12,65.89c-.16,.41-.32,.75-.47,1.02s-.33,.5-.51,.68c-.19,.18-.39,.3-.62,.38s-.49,.12-.79,.12c-.16,0-.32-.01-.48-.03-.16-.02-.31-.06-.46-.11v-1.25c.12,.05,.25,.1,.41,.14,.15,.04,.29,.06,.39,.06,.28,0,.51-.07,.7-.2,.19-.13,.33-.32,.42-.57l.56-1.39-3.28-8.22h1.54l2.42,6.77h.03l2.32-6.77h1.44l-3.6,9.38Z"/></g><g><path class="f" d="M35.59,168.16c1.76,0,3.11,.45,4.06,1.34,.95,.9,1.42,2.26,1.42,4.1,0,.96-.11,1.81-.32,2.55-.21,.74-.54,1.37-.99,1.87-.45,.51-1.02,.89-1.71,1.16s-1.51,.4-2.46,.4h-3.92v-11.42h3.92Zm.13,10.14c.17,0,.38-.01,.64-.04,.26-.03,.53-.09,.82-.19,.29-.1,.57-.25,.86-.44,.28-.19,.54-.45,.76-.78,.22-.33,.41-.74,.55-1.24,.14-.5,.22-1.1,.22-1.8s-.07-1.29-.2-1.83c-.13-.54-.35-1-.66-1.38-.3-.38-.7-.67-1.18-.86-.48-.2-1.07-.3-1.78-.3h-2.56v8.86h2.53Z"/><path class="f" d="M43.99,171.32v1.31h.03c.57-1,1.46-1.5,2.69-1.5,.54,0,1,.07,1.36,.22,.36,.15,.66,.36,.88,.62,.22,.27,.38,.58,.47,.95,.09,.37,.14,.78,.14,1.22v5.44h-1.36v-5.6c0-.51-.15-.92-.45-1.22-.3-.3-.71-.45-1.23-.45-.42,0-.78,.06-1.08,.19-.3,.13-.56,.31-.76,.54-.2,.23-.35,.51-.46,.82-.1,.31-.15,.66-.15,1.03v4.67h-1.36v-8.27h1.28Z"/><path class="f" d="M57.46,179.06c-.62,.47-1.4,.7-2.34,.7-.66,0-1.23-.11-1.72-.32s-.89-.51-1.22-.9c-.33-.38-.58-.84-.74-1.38-.17-.53-.26-1.11-.28-1.74,0-.63,.1-1.21,.29-1.73,.19-.52,.46-.98,.81-1.36,.35-.38,.76-.68,1.23-.9s.99-.32,1.56-.32c.74,0,1.35,.15,1.83,.46,.49,.3,.88,.69,1.17,1.16,.29,.47,.5,.98,.61,1.54,.11,.55,.16,1.08,.14,1.58h-6.19c-.01,.36,.03,.71,.13,1.03,.1,.33,.25,.61,.46,.86,.21,.25,.48,.45,.82,.6s.72,.22,1.17,.22c.58,0,1.05-.13,1.42-.4,.37-.27,.61-.67,.73-1.22h1.34c-.18,.93-.58,1.63-1.2,2.1Zm-.33-5.31c-.12-.29-.29-.54-.5-.74s-.45-.37-.74-.5c-.28-.12-.59-.18-.94-.18s-.67,.06-.95,.18c-.28,.12-.53,.29-.73,.5-.2,.21-.36,.46-.48,.74-.12,.28-.19,.58-.21,.9h4.75c-.02-.32-.09-.62-.22-.91Z"/><path class="f" d="M61.24,177.74c.13,.21,.3,.37,.5,.5s.44,.21,.7,.26c.26,.05,.53,.08,.81,.08,.21,0,.44-.02,.67-.05,.23-.03,.45-.09,.65-.18,.2-.09,.36-.21,.49-.38s.19-.38,.19-.63c0-.35-.13-.62-.4-.8-.27-.18-.6-.33-1-.44-.4-.11-.83-.21-1.3-.3-.47-.09-.9-.22-1.3-.38-.4-.17-.73-.4-1-.7-.27-.3-.4-.71-.4-1.25,0-.42,.09-.77,.28-1.07,.19-.3,.43-.54,.72-.73,.29-.19,.62-.33,.99-.42,.37-.09,.73-.14,1.1-.14,.47,0,.9,.04,1.3,.12,.39,.08,.74,.22,1.05,.42,.3,.2,.55,.46,.73,.8s.29,.75,.32,1.26h-1.36c-.02-.27-.09-.49-.21-.66-.12-.18-.27-.32-.45-.42-.18-.11-.38-.18-.6-.23-.22-.05-.44-.07-.66-.07-.2,0-.41,.02-.62,.05-.21,.03-.4,.09-.57,.17-.17,.08-.31,.19-.42,.32-.11,.13-.16,.31-.16,.52,0,.23,.08,.43,.25,.58,.17,.15,.38,.28,.63,.38,.26,.1,.54,.19,.86,.26,.32,.07,.64,.14,.96,.22,.34,.07,.67,.17,1,.27,.33,.11,.61,.25,.86,.42,.25,.18,.45,.4,.61,.66,.15,.27,.23,.6,.23,.99,0,.5-.1,.92-.31,1.25s-.48,.6-.82,.8c-.34,.2-.71,.34-1.14,.42-.42,.08-.84,.12-1.26,.12-.46,0-.9-.05-1.31-.14-.42-.1-.78-.25-1.1-.47s-.58-.51-.77-.86c-.19-.36-.3-.79-.32-1.3h1.36c0,.3,.08,.55,.21,.76Z"/><path class="f" d="M76.18,171.32v1.2h-1.65v5.14c0,.16,.01,.29,.04,.38,.03,.1,.08,.17,.15,.22,.08,.05,.18,.09,.31,.1,.13,.02,.31,.02,.52,.02h.62v1.2h-1.04c-.35,0-.65-.02-.9-.07-.25-.05-.45-.14-.61-.26s-.27-.31-.34-.54c-.08-.23-.11-.54-.11-.93v-5.26h-1.41v-1.2h1.41v-2.48h1.36v2.48h1.65Z"/><path class="f" d="M77.49,173.76c.17-.53,.43-.99,.77-1.38,.34-.39,.76-.7,1.26-.92,.5-.22,1.08-.34,1.73-.34s1.24,.11,1.74,.34,.91,.53,1.26,.92c.34,.39,.6,.85,.77,1.38,.17,.53,.26,1.1,.26,1.7s-.09,1.17-.26,1.7c-.17,.52-.43,.98-.77,1.37-.34,.39-.76,.69-1.26,.91-.5,.22-1.08,.33-1.74,.33s-1.23-.11-1.73-.33c-.5-.22-.92-.52-1.26-.91-.34-.39-.6-.85-.77-1.37-.17-.52-.26-1.09-.26-1.7s.08-1.18,.26-1.7Zm1.38,3.04c.13,.39,.32,.71,.55,.98,.24,.26,.51,.46,.82,.6s.65,.21,1,.21,.69-.07,1-.21,.59-.34,.82-.6,.42-.59,.55-.98c.13-.39,.2-.83,.2-1.34s-.07-.95-.2-1.34c-.13-.39-.32-.72-.55-.98-.23-.27-.51-.47-.82-.61-.31-.14-.65-.21-1-.21s-.69,.07-1,.21c-.31,.14-.59,.34-.82,.61-.23,.27-.42,.6-.55,.98s-.2,.83-.2,1.34,.07,.95,.2,1.34Z"/><path class="f" d="M98.64,179.56c-.23,.14-.56,.21-.98,.21-.35,0-.63-.1-.84-.3s-.31-.52-.31-.97c-.37,.45-.81,.77-1.3,.97s-1.03,.3-1.61,.3c-.37,0-.73-.04-1.06-.13-.34-.08-.63-.22-.87-.4-.25-.18-.44-.42-.58-.71s-.22-.65-.22-1.06c0-.47,.08-.85,.24-1.15,.16-.3,.37-.54,.63-.73,.26-.19,.56-.33,.9-.42,.34-.1,.68-.18,1.03-.24,.37-.07,.73-.13,1.06-.17,.34-.04,.63-.09,.89-.16s.46-.17,.61-.3c.15-.13,.22-.33,.22-.58,0-.3-.06-.54-.17-.72-.11-.18-.26-.32-.43-.42-.18-.1-.37-.16-.59-.19-.22-.03-.43-.05-.65-.05-.58,0-1.06,.11-1.44,.33-.38,.22-.59,.63-.62,1.24h-1.36c.02-.51,.13-.94,.32-1.3,.19-.35,.45-.64,.77-.86,.32-.22,.68-.38,1.1-.47,.41-.1,.85-.14,1.32-.14,.37,0,.74,.03,1.11,.08s.7,.16,1,.33,.54,.4,.72,.69c.18,.3,.27,.69,.27,1.17v4.25c0,.32,.02,.55,.06,.7,.04,.15,.16,.22,.38,.22,.12,0,.26-.02,.42-.06v1.06Zm-2.21-4.24c-.17,.13-.39,.22-.67,.28s-.57,.11-.87,.14c-.3,.04-.61,.08-.92,.13-.31,.05-.59,.12-.83,.23s-.45,.26-.6,.45c-.16,.2-.23,.46-.23,.8,0,.22,.05,.41,.14,.56,.09,.15,.21,.28,.35,.37,.14,.1,.31,.16,.5,.21,.19,.04,.39,.06,.61,.06,.45,0,.83-.06,1.15-.18,.32-.12,.58-.28,.78-.46,.2-.19,.35-.39,.45-.6,.1-.22,.14-.42,.14-.61v-1.39Z"/><path class="f" d="M100.95,177.74c.13,.21,.3,.37,.5,.5s.44,.21,.7,.26c.26,.05,.53,.08,.81,.08,.21,0,.44-.02,.67-.05,.23-.03,.45-.09,.65-.18,.2-.09,.36-.21,.49-.38s.19-.38,.19-.63c0-.35-.13-.62-.4-.8-.27-.18-.6-.33-1-.44-.4-.11-.83-.21-1.3-.3-.47-.09-.9-.22-1.3-.38-.4-.17-.73-.4-1-.7-.27-.3-.4-.71-.4-1.25,0-.42,.09-.77,.28-1.07,.19-.3,.43-.54,.72-.73,.29-.19,.62-.33,.99-.42,.37-.09,.73-.14,1.1-.14,.47,0,.9,.04,1.3,.12,.39,.08,.74,.22,1.05,.42,.3,.2,.55,.46,.73,.8s.29,.75,.32,1.26h-1.36c-.02-.27-.09-.49-.21-.66-.12-.18-.27-.32-.45-.42-.18-.11-.38-.18-.6-.23-.22-.05-.44-.07-.66-.07-.2,0-.41,.02-.62,.05-.21,.03-.4,.09-.57,.17-.17,.08-.31,.19-.42,.32-.11,.13-.16,.31-.16,.52,0,.23,.08,.43,.25,.58,.17,.15,.38,.28,.63,.38,.26,.1,.54,.19,.86,.26,.32,.07,.64,.14,.96,.22,.34,.07,.67,.17,1,.27,.33,.11,.61,.25,.86,.42,.25,.18,.45,.4,.61,.66,.15,.27,.23,.6,.23,.99,0,.5-.1,.92-.31,1.25s-.48,.6-.82,.8c-.34,.2-.71,.34-1.14,.42-.42,.08-.84,.12-1.26,.12-.46,0-.9-.05-1.31-.14-.42-.1-.78-.25-1.1-.47s-.58-.51-.77-.86c-.19-.36-.3-.79-.32-1.3h1.36c0,.3,.08,.55,.21,.76Z"/><path class="f" d="M107.99,169.83v-1.66h1.36v1.66h-1.36Zm1.36,1.49v8.27h-1.36v-8.27h1.36Z"/><path class="f" d="M32.73,190.52v1.31h.03c.57-1,1.46-1.5,2.69-1.5,.54,0,1,.07,1.36,.22,.36,.15,.66,.36,.88,.62,.22,.27,.38,.58,.47,.95,.09,.37,.14,.78,.14,1.22v5.44h-1.36v-5.6c0-.51-.15-.92-.45-1.22-.3-.3-.71-.45-1.23-.45-.42,0-.78,.06-1.08,.19-.3,.13-.56,.31-.76,.54-.2,.23-.35,.51-.46,.82-.1,.31-.15,.66-.15,1.03v4.67h-1.36v-8.27h1.28Z"/><path class="f" d="M46.2,198.26c-.62,.47-1.4,.7-2.34,.7-.66,0-1.23-.11-1.72-.32s-.89-.51-1.22-.9c-.33-.38-.58-.84-.74-1.38-.17-.53-.26-1.11-.28-1.74,0-.63,.1-1.21,.29-1.73,.19-.52,.46-.98,.81-1.36,.35-.38,.76-.68,1.23-.9s.99-.32,1.56-.32c.74,0,1.35,.15,1.83,.46,.49,.3,.88,.69,1.17,1.16,.29,.47,.5,.98,.61,1.54,.11,.55,.16,1.08,.14,1.58h-6.19c-.01,.36,.03,.71,.13,1.03,.1,.33,.25,.61,.46,.86,.21,.25,.48,.45,.82,.6s.72,.22,1.17,.22c.58,0,1.05-.13,1.42-.4,.37-.27,.61-.67,.73-1.22h1.34c-.18,.93-.58,1.63-1.2,2.1Zm-.33-5.31c-.12-.29-.29-.54-.5-.74s-.45-.37-.74-.5c-.28-.12-.59-.18-.94-.18s-.67,.06-.95,.18c-.28,.12-.53,.29-.73,.5-.2,.21-.36,.46-.48,.74-.12,.28-.19,.58-.21,.9h4.75c-.02-.32-.09-.62-.22-.91Z"/><path class="f" d="M54.5,198.79v-1.31h-.03c-.29,.51-.66,.89-1.1,1.13-.45,.24-.98,.36-1.58,.36-.54,0-1-.07-1.36-.22s-.66-.35-.88-.62c-.22-.27-.38-.58-.47-.95-.09-.37-.14-.78-.14-1.22v-5.44h1.36v5.6c0,.51,.15,.92,.45,1.22,.3,.3,.71,.45,1.23,.45,.42,0,.78-.06,1.08-.19,.3-.13,.56-.31,.76-.54,.2-.23,.35-.51,.46-.82,.1-.31,.15-.66,.15-1.03v-4.67h1.36v8.27h-1.28Z"/><path class="f" d="M61.36,190.52v1.2h-1.65v5.14c0,.16,.01,.29,.04,.38,.03,.1,.08,.17,.15,.22,.08,.05,.18,.09,.31,.1,.13,.02,.31,.02,.52,.02h.62v1.2h-1.04c-.35,0-.65-.02-.9-.07-.25-.05-.45-.14-.61-.26s-.27-.31-.34-.54c-.08-.23-.11-.54-.11-.93v-5.26h-1.41v-1.2h1.41v-2.48h1.36v2.48h1.65Z"/><path class="f" d="M70.2,198.76c-.23,.14-.56,.21-.98,.21-.35,0-.63-.1-.84-.3s-.31-.52-.31-.97c-.37,.45-.81,.77-1.3,.97s-1.03,.3-1.61,.3c-.37,0-.73-.04-1.06-.13-.34-.08-.63-.22-.87-.4-.25-.18-.44-.42-.58-.71s-.22-.65-.22-1.06c0-.47,.08-.85,.24-1.15,.16-.3,.37-.54,.63-.73,.26-.19,.56-.33,.9-.42,.34-.1,.68-.18,1.03-.24,.37-.07,.73-.13,1.06-.17,.34-.04,.63-.09,.89-.16s.46-.17,.61-.3c.15-.13,.22-.33,.22-.58,0-.3-.06-.54-.17-.72-.11-.18-.26-.32-.43-.42-.18-.1-.37-.16-.59-.19-.22-.03-.43-.05-.65-.05-.58,0-1.06,.11-1.44,.33-.38,.22-.59,.63-.62,1.24h-1.36c.02-.51,.13-.94,.32-1.3,.19-.35,.45-.64,.77-.86,.32-.22,.68-.38,1.1-.47,.41-.1,.85-.14,1.32-.14,.37,0,.74,.03,1.11,.08s.7,.16,1,.33,.54,.4,.72,.69c.18,.3,.27,.69,.27,1.17v4.25c0,.32,.02,.55,.06,.7,.04,.15,.16,.22,.38,.22,.12,0,.26-.02,.42-.06v1.06Zm-2.21-4.24c-.17,.13-.39,.22-.67,.28s-.57,.11-.87,.14c-.3,.04-.61,.08-.92,.13-.31,.05-.59,.12-.83,.23s-.45,.26-.6,.45c-.16,.2-.23,.46-.23,.8,0,.22,.05,.41,.14,.56,.09,.15,.21,.28,.35,.37,.14,.1,.31,.16,.5,.21,.19,.04,.39,.06,.61,.06,.45,0,.83-.06,1.15-.18,.32-.12,.58-.28,.78-.46,.2-.19,.35-.39,.45-.6,.1-.22,.14-.42,.14-.61v-1.39Z"/><path class="f" d="M72.74,190.52v1.31h.03c.57-1,1.46-1.5,2.69-1.5,.54,0,1,.07,1.36,.22,.36,.15,.66,.36,.88,.62,.22,.27,.38,.58,.47,.95,.09,.37,.14,.78,.14,1.22v5.44h-1.36v-5.6c0-.51-.15-.92-.45-1.22-.3-.3-.71-.45-1.23-.45-.42,0-.78,.06-1.08,.19-.3,.13-.56,.31-.76,.54-.2,.23-.35,.51-.46,.82-.1,.31-.15,.66-.15,1.03v4.67h-1.36v-8.27h1.28Z"/><path class="f" d="M85.3,191.96c-.34-.29-.8-.43-1.38-.43-.49,0-.9,.09-1.23,.27-.33,.18-.59,.42-.79,.72-.2,.3-.34,.64-.42,1.03-.08,.39-.13,.79-.13,1.21,0,.38,.05,.76,.14,1.12,.09,.36,.23,.69,.42,.97,.19,.28,.44,.51,.75,.68,.31,.17,.68,.26,1.1,.26,.67,0,1.2-.18,1.58-.53s.61-.85,.7-1.49h1.39c-.15,1.02-.53,1.81-1.14,2.37s-1.45,.83-2.5,.83c-.63,0-1.19-.1-1.67-.3-.49-.2-.89-.49-1.22-.86-.33-.37-.57-.82-.74-1.34-.17-.52-.25-1.08-.25-1.7s.08-1.2,.24-1.74c.16-.54,.4-1.01,.73-1.41,.33-.4,.73-.71,1.22-.94,.49-.23,1.06-.34,1.71-.34,.47,0,.91,.06,1.32,.17,.41,.11,.77,.29,1.09,.52s.57,.53,.78,.89c.2,.36,.33,.78,.38,1.27h-1.41c-.11-.52-.33-.93-.67-1.22Z"/><path class="f" d="M94.52,198.79v-1.31h-.03c-.29,.51-.66,.89-1.1,1.13-.45,.24-.98,.36-1.58,.36-.54,0-1-.07-1.36-.22s-.66-.35-.88-.62c-.22-.27-.38-.58-.47-.95-.09-.37-.14-.78-.14-1.22v-5.44h1.36v5.6c0,.51,.15,.92,.45,1.22,.3,.3,.71,.45,1.23,.45,.42,0,.78-.06,1.08-.19,.3-.13,.56-.31,.76-.54,.2-.23,.35-.51,.46-.82,.1-.31,.15-.66,.15-1.03v-4.67h1.36v8.27h-1.28Z"/><path class="f" d="M98.75,201.44c-.36,.34-.84,.5-1.45,.5-.25,0-.48-.02-.69-.06v-1.17c.05,.01,.1,.02,.14,.02,.04,0,.08,0,.12,0h.29c.3,0,.5-.08,.61-.25,.11-.17,.16-.46,.16-.89v-9.09h1.36v9.31c0,.74-.18,1.27-.54,1.61Zm-.82-12.41v-1.66h1.36v1.66h-1.36Z"/><path class="f" d="M107.25,198.26c-.62,.47-1.4,.7-2.34,.7-.66,0-1.23-.11-1.72-.32s-.89-.51-1.22-.9c-.33-.38-.58-.84-.74-1.38-.17-.53-.26-1.11-.28-1.74,0-.63,.1-1.21,.29-1.73,.19-.52,.46-.98,.81-1.36,.35-.38,.76-.68,1.23-.9s.99-.32,1.56-.32c.74,0,1.35,.15,1.83,.46,.49,.3,.88,.69,1.17,1.16,.29,.47,.5,.98,.61,1.54,.11,.55,.16,1.08,.14,1.58h-6.19c-.01,.36,.03,.71,.13,1.03,.1,.33,.25,.61,.46,.86,.21,.25,.48,.45,.82,.6s.72,.22,1.17,.22c.58,0,1.05-.13,1.42-.4,.37-.27,.61-.67,.73-1.22h1.34c-.18,.93-.58,1.63-1.2,2.1Zm-.33-5.31c-.12-.29-.29-.54-.5-.74s-.45-.37-.74-.5c-.28-.12-.59-.18-.94-.18s-.67,.06-.95,.18c-.28,.12-.53,.29-.73,.5-.2,.21-.36,.46-.48,.74-.12,.28-.19,.58-.21,.9h4.75c-.02-.32-.09-.62-.22-.91Z"/><path class="f" d="M111.27,190.52v1.22h.03c.62-.94,1.51-1.41,2.67-1.41,.51,0,.98,.11,1.39,.32s.71,.58,.88,1.09c.28-.45,.64-.79,1.1-1.04,.45-.25,.95-.37,1.5-.37,.42,0,.79,.05,1.13,.14,.34,.09,.62,.23,.86,.42,.24,.19,.43,.44,.56,.74,.13,.3,.2,.67,.2,1.1v6.06h-1.36v-5.42c0-.26-.02-.5-.06-.72-.04-.22-.12-.42-.24-.58-.12-.17-.28-.3-.49-.39-.21-.1-.48-.14-.81-.14-.67,0-1.2,.19-1.58,.58s-.58,.9-.58,1.54v5.15h-1.36v-5.42c0-.27-.02-.51-.07-.74-.05-.22-.13-.42-.25-.58-.12-.17-.28-.29-.47-.38-.2-.09-.45-.14-.76-.14-.39,0-.73,.08-1.02,.24-.28,.16-.51,.35-.69,.58-.18,.22-.3,.46-.38,.7-.08,.24-.12,.44-.12,.6v5.15h-1.36v-8.27h1.28Z"/></g><g><path class="f" d="M411.03,83.28c-.58-.41-1.27-.61-2.07-.61-.68,0-1.27,.13-1.75,.38-.49,.26-.89,.6-1.2,1.03s-.55,.93-.7,1.48-.22,1.13-.22,1.73c0,.65,.07,1.27,.22,1.85s.38,1.09,.7,1.52c.31,.43,.72,.78,1.21,1.03s1.08,.38,1.76,.38c.5,0,.95-.08,1.34-.25,.39-.17,.73-.39,1.01-.69,.28-.29,.5-.64,.66-1.05,.16-.41,.26-.84,.29-1.31h1.52c-.15,1.44-.65,2.56-1.49,3.36-.84,.8-1.99,1.2-3.46,1.2-.89,0-1.66-.15-2.32-.46-.66-.3-1.21-.72-1.65-1.26-.44-.53-.77-1.16-.98-1.89-.22-.73-.33-1.5-.33-2.34s.12-1.61,.35-2.34,.58-1.37,1.03-1.91c.45-.54,1.02-.97,1.7-1.29,.68-.31,1.45-.47,2.33-.47,.6,0,1.16,.08,1.7,.24s1.01,.4,1.42,.7c.42,.31,.76,.7,1.04,1.16,.28,.46,.46,1,.54,1.61h-1.52c-.17-.81-.55-1.42-1.13-1.82Z"/><path class="f" d="M421.31,92.56c-.62,.47-1.4,.7-2.34,.7-.66,0-1.23-.11-1.72-.32s-.89-.51-1.22-.9c-.33-.38-.58-.84-.74-1.38-.17-.53-.26-1.11-.28-1.74,0-.63,.1-1.21,.29-1.73,.19-.52,.46-.98,.81-1.36,.35-.38,.76-.68,1.23-.9s.99-.32,1.56-.32c.74,0,1.35,.15,1.83,.46,.49,.3,.88,.69,1.17,1.16,.29,.47,.5,.98,.61,1.54,.11,.55,.16,1.08,.14,1.58h-6.19c-.01,.36,.03,.71,.13,1.03,.1,.33,.25,.61,.46,.86,.21,.25,.48,.45,.82,.6s.72,.22,1.17,.22c.58,0,1.05-.13,1.42-.4,.37-.27,.61-.67,.73-1.22h1.34c-.18,.93-.58,1.63-1.2,2.1Zm-.33-5.31c-.12-.29-.29-.54-.5-.74s-.45-.37-.74-.5c-.28-.12-.59-.18-.94-.18s-.67,.06-.95,.18c-.28,.12-.53,.29-.73,.5-.2,.21-.36,.46-.48,.74-.12,.28-.19,.58-.21,.9h4.75c-.02-.32-.09-.62-.22-.91Z"/><path class="f" d="M425.48,81.66v11.42h-1.36v-11.42h1.36Z"/><path class="f" d="M430.84,94.19c-.16,.41-.32,.75-.47,1.02s-.33,.5-.51,.68c-.19,.18-.39,.3-.62,.38s-.49,.12-.79,.12c-.16,0-.32-.01-.48-.03-.16-.02-.31-.06-.46-.11v-1.25c.12,.05,.25,.1,.41,.14,.15,.04,.29,.06,.39,.06,.28,0,.51-.07,.7-.2,.19-.13,.33-.32,.42-.57l.56-1.39-3.28-8.22h1.54l2.42,6.77h.03l2.32-6.77h1.44l-3.6,9.38Zm2.34-13.42l-2.26,2.59h-1.02l1.54-2.59h1.74Z"/><path class="f" d="M438.84,94.19c-.16,.41-.32,.75-.47,1.02s-.33,.5-.51,.68c-.19,.18-.39,.3-.62,.38s-.49,.12-.79,.12c-.16,0-.32-.01-.48-.03-.16-.02-.31-.06-.46-.11v-1.25c.12,.05,.25,.1,.41,.14,.15,.04,.29,.06,.39,.06,.28,0,.51-.07,.7-.2,.19-.13,.33-.32,.42-.57l.56-1.39-3.28-8.22h1.54l2.42,6.77h.03l2.32-6.77h1.44l-3.6,9.38Zm2.34-13.42l-2.26,2.59h-1.02l1.54-2.59h1.74Z"/><path class="f" d="M452.36,86.02h-4.67v-1.2h6.43v.93l-5.06,6.14h5.28v1.2h-6.98v-1.04l4.99-6.03Zm-2.24-2.34l-1.66-2.29h1.34l1.1,1.54,1.12-1.54h1.23l-1.65,2.29h-1.49Z"/><path class="f" d="M455.8,83.33v-1.66h1.36v1.66h-1.36Zm1.36,1.49v8.27h-1.36v-8.27h1.36Z"/><path class="f" d="M461.54,93.09l-3.07-8.27h1.52l2.32,6.9h.03l2.26-6.9h1.42l-3.02,8.27h-1.46Z"/><path class="f" d="M467.08,87.26c.17-.53,.43-.99,.77-1.38,.34-.39,.76-.7,1.26-.92,.5-.22,1.08-.34,1.73-.34s1.24,.11,1.74,.34,.91,.53,1.26,.92c.34,.39,.6,.85,.77,1.38,.17,.53,.26,1.1,.26,1.7s-.09,1.17-.26,1.7c-.17,.52-.43,.98-.77,1.37-.34,.39-.76,.69-1.26,.91-.5,.22-1.08,.33-1.74,.33s-1.23-.11-1.73-.33c-.5-.22-.92-.52-1.26-.91-.34-.39-.6-.85-.77-1.37-.17-.52-.26-1.09-.26-1.7s.08-1.18,.26-1.7Zm1.38,3.04c.13,.39,.32,.71,.55,.98,.24,.26,.51,.46,.82,.6s.65,.21,1,.21,.69-.07,1-.21,.59-.34,.82-.6,.42-.59,.55-.98c.13-.39,.2-.83,.2-1.34s-.07-.95-.2-1.34c-.13-.39-.32-.72-.55-.98-.23-.27-.51-.47-.82-.61-.31-.14-.65-.21-1-.21s-.69,.07-1,.21c-.31,.14-.59,.34-.82,.61-.23,.27-.42,.6-.55,.98s-.2,.83-.2,1.34,.07,.95,.2,1.34Z"/><path class="f" d="M479.99,84.82v1.2h-1.65v5.14c0,.16,.01,.29,.04,.38,.03,.1,.08,.17,.15,.22,.08,.05,.18,.09,.31,.1,.13,.02,.31,.02,.52,.02h.62v1.2h-1.04c-.35,0-.65-.02-.9-.07-.25-.05-.45-.14-.61-.26s-.27-.31-.34-.54c-.08-.23-.11-.54-.11-.93v-5.26h-1.41v-1.2h1.41v-2.48h1.36v2.48h1.65Z"/><path class="f" d="M483.43,91.31v1.78h-1.78v-1.78h1.78Zm-.53-1.15h-.72l-.4-4.98v-3.52h1.52v3.52l-.4,4.98Z"/></g></svg>